<?xml version="1.0" encoding="UTF-8" standalone="no"?>
<svg
   xmlns:osb="http://www.openswatchbook.org/uri/2009/osb"
   xmlns:dc="http://purl.org/dc/elements/1.1/"
   xmlns:cc="http://creativecommons.org/ns#"
   xmlns:rdf="http://www.w3.org/1999/02/22-rdf-syntax-ns#"
   xmlns:svg="http://www.w3.org/2000/svg"
   xmlns="http://www.w3.org/2000/svg"
   xmlns:sodipodi="http://sodipodi.sourceforge.net/DTD/sodipodi-0.dtd"
   xmlns:inkscape="http://www.inkscape.org/namespaces/inkscape"
   inkscape:version="1.0beta2 (3287d1b, 2019-12-24)"
   height="793.50525"
   width="1118.5543"
   sodipodi:docname="marvin-title.svg"
   id="svg62"
   version="1.1"
   viewBox="0 0 1118.5543 793.50526">
  <metadata
     id="metadata68">
    <rdf:RDF>
      <cc:Work
         rdf:about="">
        <dc:format>image/svg+xml</dc:format>
        <dc:type
           rdf:resource="http://purl.org/dc/dcmitype/StillImage" />
        <dc:title>Logo-17-with-title</dc:title>
      </cc:Work>
    </rdf:RDF>
  </metadata>
  <defs
     id="defs66">
    <linearGradient
       osb:paint="solid"
       id="linearGradient1355">
      <stop
         id="stop1353"
         offset="0"
         style="stop-color:#000000;stop-opacity:1;" />
    </linearGradient>
  </defs>
  <sodipodi:namedview
     inkscape:current-layer="svg62"
     inkscape:window-maximized="1"
     inkscape:window-y="-3"
     inkscape:window-x="-8"
     inkscape:cy="303.60278"
     inkscape:cx="713.61259"
     inkscape:zoom="0.71617318"
     showgrid="false"
     id="namedview64"
     inkscape:window-height="1015"
     inkscape:window-width="1920"
     inkscape:pageshadow="2"
     inkscape:pageopacity="0"
     guidetolerance="10"
     gridtolerance="10"
     objecttolerance="10"
     borderopacity="1"
     inkscape:document-rotation="0"
     bordercolor="#666666"
     pagecolor="#ffffff" />
  <title
     id="title2">Logo-17-with-title</title>
  <g
     style="fill:#cccccc;fill-opacity:1;stroke:none;stroke-opacity:1;stroke-width:6.96211421;stroke-miterlimit:4;stroke-dasharray:none;paint-order:stroke fill markers;stroke-linecap:round;stroke-linejoin:round"
     id="g947"
     transform="matrix(1.72245,0,0,-1.7247795,603.78744,420.82537)">
    <path
       d="M 0,0 V -52.929 H -22.009 V -3.456 H -33.013 V -52.929 H -55.021 V -3.456 H -66.026 V -52.929 H -88.034 V 8.913 H -8.913 C -3.984,8.913 0,4.929 0,0"
       style="fill-opacity:1;fill-rule:nonzero;stroke:none;fill:#cccccc;stroke-opacity:1;stroke-width:6.96211421;stroke-miterlimit:4;stroke-dasharray:none;paint-order:stroke fill markers;stroke-linecap:round;stroke-linejoin:round"
       id="path949"
       inkscape:connector-curvature="0" />
  </g>
  <g
     style=""
     id="g951"
     transform="matrix(1.72245,0,0,-1.7247795,638.09365,405.45228)" />
  <path
     d="M 679.60384,426.78602 H 660.65 v 21.33207 h 18.95384 z m -41.51019,-21.33374 h 64.06825 c 8.48823,0 15.3522,6.87152 15.3522,15.37296 v 91.29085 h -37.90941 v -42.66587 h -18.95383 v 42.66587 h -37.90941 v -91.29085 c 0,-8.50144 6.86224,-15.37296 15.3522,-15.37296"
     style="fill-opacity:1;fill-rule:nonzero;stroke:none;stroke-width:12;fill:#cccccc;stroke-opacity:1;stroke-miterlimit:4;stroke-dasharray:none;paint-order:stroke fill markers;stroke-linecap:round;stroke-linejoin:round"
     id="path955" />
  <g
     style="fill:#cccccc;fill-opacity:1;stroke:none;stroke-opacity:1;stroke-width:6.96211421;stroke-miterlimit:4;stroke-dasharray:none;paint-order:stroke fill markers;stroke-linecap:round;stroke-linejoin:round"
     id="g957"
     transform="matrix(1.72245,0,0,-1.7247795,929.61292,512.11661)">
    <path
       d="M 0,0 H -46.108 V 61.842 H -24.1 V 12.369 h 11.004 V 61.842 H 8.913 V 8.913 C 8.913,3.984 4.929,0 0,0"
       style="fill-opacity:1;fill-rule:nonzero;stroke:none;fill:#cccccc;stroke-opacity:1;stroke-width:6.96211421;stroke-miterlimit:4;stroke-dasharray:none;paint-order:stroke fill markers;stroke-linecap:round;stroke-linejoin:round"
       id="path959"
       inkscape:connector-curvature="0" />
  </g>
  <path
     d="M 1001.8277,512.11603 H 963.92004 V 405.45222 h 37.90766 z"
     style="fill-opacity:1;fill-rule:nonzero;stroke:none;stroke-width:12;fill:#cccccc;stroke-opacity:1;stroke-miterlimit:4;stroke-dasharray:none;paint-order:stroke fill markers;stroke-linecap:round;stroke-linejoin:round"
     id="path961"
     inkscape:connector-curvature="0" />
  <g
     style="fill:#cccccc;fill-opacity:1;stroke:none;stroke-opacity:1;stroke-width:6.96211421;stroke-miterlimit:4;stroke-dasharray:none;paint-order:stroke fill markers;stroke-linecap:round;stroke-linejoin:round"
     id="g963"
     transform="matrix(1.72245,0,0,-1.7247795,1115.5543,420.82537)">
    <path
       d="M 0,0 V -52.929 H -22.009 V -3.456 H -33.013 V -52.929 H -55.021 V 8.913 H -8.913 C -3.984,8.913 0,4.929 0,0"
       style="fill-opacity:1;fill-rule:nonzero;stroke:none;fill:#cccccc;stroke-opacity:1;stroke-width:6.96211421;stroke-miterlimit:4;stroke-dasharray:none;paint-order:stroke fill markers;stroke-linecap:round;stroke-linejoin:round"
       id="path965"
       inkscape:connector-curvature="0" />
  </g>
  <g
     style=""
     id="g967"
     transform="matrix(1.72245,0,0,-1.7247795,831.23898,420.82537)" />
  <path
     d="m 793.33031,426.78602 h -18.95384 v 21.33207 h 18.95384 z m 37.90867,-5.96065 v 24.71092 c 0.0589,5.13752 -0.22278,10.41951 -6.89324,10.3435 -4.15158,0.0533 -3.5031,6.1659 0,5.80906 6.83658,0.5035 7.07559,5.70158 6.89324,10.3504 v 40.07697 h -37.9094 v -42.66587 h -18.95384 v 42.66587 H 736.46806 V 405.45241 h 79.41872 c 8.48996,0 15.3522,6.87152 15.3522,15.37296"
     style="fill-opacity:1;fill-rule:nonzero;stroke:none;stroke-width:12;fill:#cccccc;stroke-opacity:1;stroke-miterlimit:4;stroke-dasharray:none;paint-order:stroke fill markers;stroke-linecap:round;stroke-linejoin:round"
     id="path971" />
  <g
     style="fill-opacity:1;fill:#cccccc;stroke:none;stroke-opacity:1;stroke-width:6.96211421;stroke-miterlimit:4;stroke-dasharray:none;paint-order:stroke fill markers;stroke-linecap:round;stroke-linejoin:round"
     id="g973"
     transform="matrix(1.72245,0,0,-1.7247795,610.34101,543.27713)">
    <path
       d="m 0,0 h -8.279 v -7.396 h 7.63 v -3.45 h -7.63 v -10.297 h -3.676 V 3.467 H 0 Z"
       style="fill-opacity:1;fill-rule:nonzero;stroke:none;fill:#cccccc;stroke-opacity:1;stroke-width:6.96211421;stroke-miterlimit:4;stroke-dasharray:none;paint-order:stroke fill markers;stroke-linecap:round;stroke-linejoin:round"
       id="path975"
       inkscape:connector-curvature="0" />
  </g>
  <g
     style="fill-opacity:1;fill:#cccccc;stroke:none;stroke-opacity:1;stroke-width:6.96211421;stroke-miterlimit:4;stroke-dasharray:none;paint-order:stroke fill markers;stroke-linecap:round;stroke-linejoin:round"
     id="g977"
     transform="matrix(1.72245,0,0,-1.7247795,643.82476,537.29766)">
    <path
       d="m 0,0 v -3.295 h -2.023 v -18.02 H 0 v -3.295 h -7.723 v 3.295 H -5.7 v 18.02 H -7.723 V 0 Z"
       style="fill-opacity:1;fill-rule:nonzero;stroke:none;fill:#cccccc;stroke-opacity:1;stroke-width:6.96211421;stroke-miterlimit:4;stroke-dasharray:none;paint-order:stroke fill markers;stroke-linecap:round;stroke-linejoin:round"
       id="path979"
       inkscape:connector-curvature="0" />
  </g>
  <g
     style="fill-opacity:1;"
     id="g981"
     transform="matrix(1.72245,0,0,-1.7247795,696.11714,579.74431)" />
  <g
     style="fill-opacity:1;fill:#cccccc;stroke:none;stroke-opacity:1;stroke-width:6.96211421;stroke-miterlimit:4;stroke-dasharray:none;paint-order:stroke fill markers;stroke-linecap:round;stroke-linejoin:round"
     id="g985"
     transform="matrix(1.72245,0,0,-1.7247795,672.94484,543.01013)">
    <path
       d="m 0,0 v -7.998 h 3.058 c 0.567,0 1.089,0.098 1.568,0.292 0.479,0.195 0.893,0.475 1.243,0.841 0.35,0.366 0.623,0.812 0.819,1.339 0.196,0.526 0.293,1.115 0.293,1.767 0,1.179 -0.334,2.1 -1.004,2.763 C 5.308,-0.332 4.345,0 3.089,0 Z M 13.453105,-21.297899 H 9.1591046 l -3.537,6.59 c -0.319,0.606 -0.631,1.124 -0.934,1.553 -0.304,0.429 -0.613,0.781 -0.927,1.056 -0.314,0.274 -0.657,0.474 -1.027,0.6 -0.371,0.126 -0.788,0.189 -1.251,0.189 H 1.0458939e-4 v -9.988 H -3.6608954 V 3.3121008 h 7.291 c 1.04,0 1.997,-0.137 2.872,-0.412 0.876,-0.275 1.638,-0.689 2.286,-1.244 0.649,-0.555 1.156,-1.24700004 1.5220004,-2.07700004 0.365,-0.82899996 0.548,-1.79899996 0.548,-2.90899996 0,-0.869 -0.116,-1.667 -0.347,-2.394 -0.232,-0.726 -0.5620004,-1.373 -0.9890004,-1.939 -0.427,-0.566 -0.942,-1.05 -1.544,-1.45 -0.603,-0.401 -1.28,-0.709 -2.032,-0.9269998 v -0.069 c 0.402,-0.251 0.752,-0.529 1.051,-0.832 0.298,-0.303 0.581,-0.615 0.849,-0.935 0.268,-0.32 0.533,-0.684 0.796,-1.09 0.262,-0.406 0.553,-0.878 0.872,-1.416 z"
       style="fill-opacity:1;fill-rule:nonzero;stroke:none;fill:#cccccc;stroke-opacity:1;stroke-width:6.96211421;stroke-miterlimit:4;stroke-dasharray:none;paint-order:stroke fill markers;stroke-linecap:round;stroke-linejoin:round"
       id="path987" />
  </g>
  <g
     style="fill-opacity:1;fill:#cccccc;stroke:none;stroke-opacity:1;stroke-width:6.96211421;stroke-miterlimit:4;stroke-dasharray:none;paint-order:stroke fill markers;stroke-linecap:round;stroke-linejoin:round"
     id="g989"
     transform="matrix(1.72245,0,0,-1.7247795,758.41298,579.74431)">
    <path
       d="m 0,0 h -3.645 v 15.926 c 0,1.304 0.072,2.9 0.216,4.788 H -3.491 C -3.717,19.639 -3.918,18.866 -4.093,18.397 L -10.704,0 h -2.533 l -6.626,18.26 c -0.185,0.538 -0.381,1.356 -0.587,2.454 h -0.062 c 0.083,-0.984 0.124,-2.591 0.124,-4.822 V 0 h -3.398 v 24.61 h 5.174 l 5.823,-16.389 c 0.443,-1.259 0.731,-2.198 0.865,-2.815 h 0.077 c 0.381,1.293 0.69,2.254 0.927,2.883 L -4.989,24.61 H 0 Z"
       style="fill-opacity:1;fill-rule:nonzero;stroke:none;fill:#cccccc;stroke-opacity:1;stroke-width:6.96211421;stroke-miterlimit:4;stroke-dasharray:none;paint-order:stroke fill markers;stroke-linecap:round;stroke-linejoin:round"
       id="path991"
       inkscape:connector-curvature="0" />
  </g>
  <g
     style="fill-opacity:1;fill:#cccccc;stroke:none;stroke-opacity:1;stroke-width:6.96211421;stroke-miterlimit:4;stroke-dasharray:none;paint-order:stroke fill markers;stroke-linecap:round;stroke-linejoin:round"
     id="g993"
     transform="matrix(1.72245,0,0,-1.7247795,832.01589,537.29766)">
    <path
       d="m 0,0 -6.07,-24.61 h -4.155 l -4.217,17.214 c -0.175,0.731 -0.283,1.532 -0.324,2.402 h -0.062 c -0.051,-0.812 -0.175,-1.602 -0.371,-2.368 l -4.232,-17.248 h -4.247 L -29.872,0 h 4.031 l 4.016,-18.02 c 0.165,-0.755 0.268,-1.544 0.309,-2.368 h 0.077 c 0.042,0.583 0.186,1.373 0.433,2.368 L -16.465,0 h 3.784 l 4.201,-18.157 c 0.144,-0.618 0.253,-1.35 0.325,-2.197 h 0.061 c 0.031,0.572 0.15,1.328 0.356,2.266 L -3.8,0 Z"
       style="fill-opacity:1;fill-rule:nonzero;stroke:none;fill:#cccccc;stroke-opacity:1;stroke-width:6.96211421;stroke-miterlimit:4;stroke-dasharray:none;paint-order:stroke fill markers;stroke-linecap:round;stroke-linejoin:round"
       id="path995"
       inkscape:connector-curvature="0" />
  </g>
  <g
     style="fill-opacity:1;"
     id="g997"
     transform="matrix(1.72245,0,0,-1.7247795,883.61498,579.74431)" />
  <g
     style="fill-opacity:1;fill:#cccccc;stroke:none;stroke-opacity:1;stroke-width:6.96211421;stroke-miterlimit:4;stroke-dasharray:none;paint-order:stroke fill markers;stroke-linecap:round;stroke-linejoin:round"
     id="g1001"
     transform="matrix(1.72245,0,0,-1.7247795,871.56317,563.19794)">
    <path
       d="m 0,0 -3.074,9.816 c -0.093,0.321 -0.19,0.836 -0.293,1.545 H -3.429 C -3.522,10.709 -3.625,10.194 -3.738,9.816 L -6.781,0 Z m 6.9968998,-9.5933248 h -4.031 l -1.99300004,6.264 H -7.7381002 l -1.915,-6.264 H -13.6691 l 8.2939998,24.6099998 h 4.139 z"
       style="fill-opacity:1;fill-rule:nonzero;stroke:none;fill:#cccccc;stroke-opacity:1;stroke-width:6.96211421;stroke-miterlimit:4;stroke-dasharray:none;paint-order:stroke fill markers;stroke-linecap:round;stroke-linejoin:round"
       id="path1003" />
  </g>
  <g
     style="fill-opacity:1;"
     id="g1005"
     transform="matrix(1.72245,0,0,-1.7247795,935.21562,579.74431)" />
  <g
     style="fill-opacity:1;fill:#cccccc;stroke:none;stroke-opacity:1;stroke-width:6.96211421;stroke-miterlimit:4;stroke-dasharray:none;paint-order:stroke fill markers;stroke-linecap:round;stroke-linejoin:round"
     id="g1009"
     transform="matrix(1.72245,0,0,-1.7247795,912.04328,543.01013)">
    <path
       d="m 0,0 v -7.998 h 3.058 c 0.567,0 1.089,0.098 1.568,0.292 0.479,0.195 0.893,0.475 1.243,0.841 0.35,0.366 0.623,0.812 0.819,1.339 0.196,0.526 0.293,1.115 0.293,1.767 0,1.179 -0.334,2.1 -1.003,2.763 C 5.308,-0.332 4.345,0 3.089,0 Z M 13.453128,-21.297899 H 9.1591278 l -3.537,6.59 c -0.319,0.606 -0.631,1.124 -0.934,1.553 -0.304,0.429 -0.613,0.781 -0.927,1.056 -0.314,0.274 -0.656,0.474 -1.027,0.6 -0.371,0.126 -0.788,0.189 -1.251,0.189 H 1.2781213e-4 v -9.988 H -3.6608722 V 3.3121008 h 7.291 c 1.04,0 1.997,-0.137 2.873,-0.412 0.875,-0.275 1.637,-0.689 2.285,-1.244 0.649,-0.555 1.156,-1.24700004 1.5220002,-2.07700004 0.365,-0.82899996 0.548,-1.79899996 0.548,-2.90899996 0,-0.869 -0.116,-1.667 -0.347,-2.394 -0.232,-0.726 -0.5620002,-1.373 -0.9890002,-1.939 -0.427,-0.566 -0.942,-1.05 -1.544,-1.45 -0.603,-0.401 -1.28,-0.709 -2.031,-0.9269998 v -0.069 c 0.401,-0.251 0.751,-0.529 1.05,-0.832 0.299,-0.303 0.581,-0.615 0.849,-0.935 0.268,-0.32 0.533,-0.684 0.796,-1.09 0.262,-0.406 0.553,-0.878 0.873,-1.416 z"
       style="fill-opacity:1;fill-rule:nonzero;stroke:none;fill:#cccccc;stroke-opacity:1;stroke-width:6.96211421;stroke-miterlimit:4;stroke-dasharray:none;paint-order:stroke fill markers;stroke-linecap:round;stroke-linejoin:round"
       id="path1011" />
  </g>
  <g
     style="fill-opacity:1;fill:#cccccc;stroke:none;stroke-opacity:1;stroke-width:6.96211421;stroke-miterlimit:4;stroke-dasharray:none;paint-order:stroke fill markers;stroke-linecap:round;stroke-linejoin:round"
     id="g1013"
     transform="matrix(1.72245,0,0,-1.7247795,977.95748,579.74431)">
    <path
       d="m 0,0 h -12.434 v 24.61 h 11.94 v -3.467 h -8.264 v -6.967 h 7.615 v -3.45 H -8.758 V 3.449 H 0 Z"
       style="fill-opacity:1;fill-rule:nonzero;stroke:none;fill:#cccccc;stroke-opacity:1;stroke-width:6.96211421;stroke-miterlimit:4;stroke-dasharray:none;paint-order:stroke fill markers;stroke-linecap:round;stroke-linejoin:round"
       id="path1015"
       inkscape:connector-curvature="0" />
  </g>
  <g
     style="fill:#808080"
     id="g1017"
     transform="matrix(1.72245,0,0,-1.7247795,262.05921,773.02979)">
    <path
       d="m 0,0 6.214,-0.033 c 13.854,-0.297 26.239,0.252 40.013,1.772 2.252,0.22 4.405,1.559 5.598,3.482 l 0.074,0.265 c -0.015,2.438 -1.35,4.857 -3.404,6.171 -3.834,1.771 -7.174,4.486 -9.692,7.877 -1.448,1.782 -2.962,3.278 -4.762,4.704 -4.615,3.136 -9.525,5.38 -14.917,6.817 l -2.123,0.729 c -1.346,0.313 -2.518,1.352 -2.99,2.651 0.01,1.484 0.752,2.971 1.931,3.871 4.523,4.437 7.647,10.33 8.779,16.564 0.088,0.513 0.363,0.999 0.758,1.337 3.285,2.542 5.609,6.4 6.321,10.492 l 0.741,3.566 c 2.667,11.523 1.805,23.874 -2.438,34.915 -3.029,6.126 -7.324,11.449 -12.671,15.705 -1.115,1.065 -2.576,1.776 -4.102,1.998 -0.84,0.009 -1.669,0.236 -2.396,0.656 -1.155,1.029 -1.88,2.565 -1.941,4.111 l -0.017,0.11 c -1.559,5.748 -1.986,11.587 -1.28,17.501 0.541,3.224 0.284,6.535 -0.747,9.638 -2.232,5.785 -5.994,10.927 -10.831,14.806 -7.341,6.182 -13.944,11.339 -21.719,16.963 l -0.118,0.064 c -0.915,0.339 -1.319,1.432 -0.846,2.285 1.128,0.894 2.654,1.31 4.079,1.112 17.729,-1.163 35.368,1.73 51.797,8.494 22.368,9.186 41.72,26.169 53.732,47.156 2.497,4.18 4.536,7.92 6.7,12.282 11.704,22.553 16.702,48.558 14.192,73.843 -2.457,20.203 -9.241,39.397 -20.025,56.657 -12.136,20.807 -31.187,37.718 -53.287,47.299 -20.252,8.456 -42.205,11.927 -64.077,10.13 -16.682,-0.804 -32.711,-4.944 -47.696,-12.319 -22.343,-11.381 -41.038,-30.198 -52.273,-52.614 -9.301,-17.387 -14.907,-36.038 -16.735,-55.67 -0.955,-14.588 0.899,-28.864 5.548,-42.724 l 2.688,-8.208 c 7.32,-21.528 20.317,-40.928 37.441,-55.887 12.231,-10.517 26.382,-18.172 41.877,-22.653 l 0.12,-0.019 c 1.668,-0.064 3.002,-1.441 3.012,-3.111 0.185,-1.25 -0.728,-2.405 -1.987,-2.513 l -0.139,-0.033 -12.754,-5.009 c -0.712,-0.352 -1.485,-0.541 -2.279,-0.557 -4.854,0.417 -9.793,-2.249 -12.108,-6.535 -0.551,-0.566 -1.329,-0.923 -2.117,-0.973 -3.735,-0.422 -7.264,-2.75 -9.122,-6.018 -1.852,-2.741 -3.306,-5.395 -4.621,-8.43 -2.586,-6.347 -6.078,-11.982 -10.613,-17.121 -5.222,-5.694 -8.246,-13.52 -8.208,-21.246 -0.094,-0.747 -0.39,-1.463 -0.851,-2.058 -7.815,-14.099 -9.831,-31.62 -5.423,-47.125 l 0.931,-2.174 c 0.101,-0.235 0.37,-0.356 0.612,-0.275 1.174,0.39 2.22,0.89 3.261,1.558 0.148,-3.487 0.016,-6.654 -0.422,-10.116 -0.824,-5.928 0.654,-12.241 4.023,-17.186 3.22,-4.969 5.863,-9.424 8.682,-14.63 2.063,-3.751 5.836,-6.609 10.005,-7.579 3.334,-0.923 6.207,-1.82 9.474,-2.96 -1.218,-8.345 -2.452,-15.529 -4.089,-23.802 -0.586,-2.445 1.163,-4.88 3.667,-5.107 3.104,-0.77 5.965,-1.237 9.152,-1.494 l 77.786,-1.534 1.945,0.066 c 2.386,-0.099 4.652,1.489 5.373,3.766 0.258,1.653 0.116,3.341 -0.414,4.928 z"
       style="fill-opacity:1;fill-rule:nonzero;stroke:none;fill:#808080"
       id="path1019"
       inkscape:connector-curvature="0" />
  </g>
  <g
     id="g1021"
     transform="matrix(1.72245,0,0,-1.7247795,372.01784,356.26153)">
    <path
       d="m 0,0 -18.364,17.074 c -20.323,18.833 -45.528,32.077 -72.567,38.129 -30.998,7.033 -62.541,7.557 -93.756,1.558 l -13.15,-2.539 c -0.613,8.277 -4.564,16.399 -10.697,21.99 -0.991,0.975 -1.634,2.321 -1.769,3.705 1.714,25.957 10.678,51.309 25.662,72.574 13.631,20.024 34.436,35.397 57.581,42.545 21.683,6.563 44.674,7.706 66.901,3.325 18.061,-3.126 35.111,-10.741 49.492,-22.106 C 6.97,162.009 20.525,142.875 28.114,121.51 34.307,106.251 37.275,90.223 36.959,73.757 35.799,53.366 30.475,33.778 21.153,15.605 20.368,14.517 19.357,13.626 18.177,12.986 11.394,9.513 5.485,5.291 0,0"
       style="fill:#ffffff;fill-opacity:1;fill-rule:nonzero;stroke:none"
       id="path1023"
       inkscape:connector-curvature="0" />
  </g>
  <g
     id="g1025"
     transform="matrix(1.72245,0,0,-1.7247795,194.79823,732.42766)">
    <path
       d="m 0,0 -1.228,6.479 c -0.452,2.487 0.275,5.208 1.908,7.137 0.813,-1.228 1.638,-2.278 2.639,-3.359 1.767,-1.993 4.667,-2.921 7.263,-2.323 2.505,0.812 4.731,2.566 6.106,4.813 1.164,1.415 2.887,2.395 4.698,2.674 6.793,0.905 12.816,1.412 19.664,1.654 2.254,0.153 4.596,-0.607 6.33,-2.054 1.378,-1.425 2.413,-3.117 3.054,-4.992 l -1.49,0.146 C 40.08,11.743 31.054,11.297 22.388,8.862 18.097,7.799 14.139,5.281 11.357,1.846 9.928,0.46 8.03,-0.458 6.056,-0.717 4.225,-1.184 2.259,-1.111 0.466,-0.511 0.258,-0.404 0.088,-0.217 0,0"
       style="fill:#ffffff;fill-opacity:1;fill-rule:nonzero;stroke:none"
       id="path1027"
       inkscape:connector-curvature="0" />
  </g>
  <g
     id="g1029"
     transform="matrix(1.72245,0,0,-1.7247795,287.44194,650.88642)">
    <path
       d="m 0,0 0.874,3.878 c 0.627,3.379 1.429,6.378 2.573,9.618 1.723,4.245 2.645,8.61 2.783,13.189 0.042,6.63 -2.217,13.323 -6.269,18.571 -1.032,1.2 -1.878,2.353 -2.712,3.699 l -0.135,0.143 -0.051,0.112 0.073,0.1 c 1.42,-0.239 2.765,-0.852 3.877,-1.768 C 8.016,42.309 13.17,34.466 15.195,25.961 16.39,20.541 16.803,15.302 16.473,9.761 16.299,4.125 15.201,-1.23 13.143,-6.48 12.573,-8.048 11.651,-9.456 10.439,-10.604 9.851,-8.989 9.415,-7.52 9.028,-5.846 8.553,-3.701 7.083,-1.755 5.15,-0.712 3.517,-0.06 1.749,0.185 0,0"
       style="fill:#ffffff;fill-opacity:1;fill-rule:nonzero;stroke:none"
       id="path1031"
       inkscape:connector-curvature="0" />
  </g>
  <g
     id="g1033"
     transform="matrix(1.72245,0,0,-1.7247795,207.80842,670.10327)">
    <path
       d="m 0,0 0.128,1.917 c 0.364,8.535 -3.792,17.251 -10.653,22.342 -4.629,3.503 -9.698,6.047 -15.273,7.665 5.252,-0.301 9.973,-0.959 15.107,-2.106 4.32,-1.126 8.215,-2.705 12.098,-4.907 1.767,-1.057 3.109,-2.87 3.603,-4.869 0.483,-3.2 0.326,-6.393 -0.468,-9.53 C 3.467,6.746 2.006,3.363 0,0"
       style="fill:#ffffff;fill-opacity:1;fill-rule:nonzero;stroke:none"
       id="path1035"
       inkscape:connector-curvature="0" />
  </g>
  <g
     id="g1037"
     transform="matrix(1.72245,0,0,-1.7247795,100.70287,517.93684)">
    <path
       d="m 0,0 -2.377,-4.936 c -0.333,-0.901 -1.156,-1.615 -2.095,-1.817 -2.6,-0.143 -4.961,-0.075 -7.549,0.214 -1.64,0.228 -3.397,-0.239 -4.707,-1.253 -1.193,-1.275 -1.978,-2.94 -2.203,-4.671 -0.643,-3.387 -1.133,-6.319 -1.624,-9.731 l -0.444,-1.279 c -1.559,0.268 -2.988,0.73 -4.409,1.425 -0.544,0.599 -0.793,1.471 -0.648,2.267 l 0.808,2.723 c 0.639,3.06 1.83,5.892 3.569,8.49 l 4.652,6.172 c 4.868,6.426 8.581,13.118 11.457,20.649 3.085,-1.79 5.72,-3.454 8.663,-5.47 C 3.842,12.05 4.236,10.947 4.121,9.905 3.523,8.043 2.855,6.409 1.98,4.66 1.206,3.083 0.597,1.651 0,0"
       style="fill:#ffffff;fill-opacity:1;fill-rule:nonzero;stroke:none"
       id="path1039"
       inkscape:connector-curvature="0" />
  </g>
  <g
     id="g1041"
     transform="matrix(1.72245,0,0,-1.7247795,70.026043,560.22774)">
    <path
       d="m 0,0 2.7,13.151 c 0.303,1.306 1.619,2.108 2.919,1.781 2.658,-0.287 5.057,-0.377 7.729,-0.29 1.407,-0.016 2.834,0.619 3.765,1.675 l 0.068,0.1 c 2.863,5.529 5.187,10.434 7.655,16.149 0.65,1.319 0.8,2.901 0.411,4.319 -0.719,1.829 -2.244,3.365 -4.068,4.099 -2.669,1.574 -4.955,3.099 -7.432,4.959 l 1.838,1.369 c 4.834,4.616 12.481,4.474 17.14,-0.319 2.505,-2.936 3.508,-7.164 2.588,-10.913 l -1.18,-6.57 C 32.785,22.01 32.629,14.7 33.657,7.148 29.135,8.245 25.23,9.111 20.669,10.032 19.176,10.433 17.496,10.203 16.166,9.416 14.8,8.278 13.706,6.892 12.918,5.299 L 11.82,3.42 C 11.379,2.453 10.602,1.631 9.661,1.136 7.297,0.541 5.051,0.241 2.614,0.194 Z"
       style="fill:#ffffff;fill-opacity:1;fill-rule:nonzero;stroke:none"
       id="path1043"
       inkscape:connector-curvature="0" />
  </g>
  <g
     id="g1045"
     transform="matrix(1.72245,0,0,-1.7247795,259.91753,541.9102)">
    <path
       d="m 0,0 -1.998,1.432 1.753,3.665 c 1.747,3.198 2.003,7.245 0.673,10.638 l -6.793,15.473 c -1.017,2.45 -1.967,4.551 -3.137,6.932 l 3.296,-2.601 C -1.606,31.984 2.102,27.478 4.705,22.28 5.149,21.288 5.47,20.349 5.725,19.292 6.429,15.582 6.582,11.991 6.195,8.234 5.945,5.244 5.977,2.495 6.296,-0.489 6.452,-2.325 6.708,-3.961 7.12,-5.757 4.87,-3.553 2.626,-1.739 0,0"
       style="fill:#ffffff;fill-opacity:1;fill-rule:nonzero;stroke:none"
       id="path1047"
       inkscape:connector-curvature="0" />
  </g>
  <g
     style="fill:#ffffff"
     id="g1049"
     transform="matrix(1.72245,0,0,-1.7247795,99.659929,778.20762)">
    <path
       d="m 0,0 0.306,0.599 24.708,-1.513 62.595,-0.041 c 1.567,0.287 3.268,-0.066 4.592,-0.951 -0.362,-0.588 -0.811,-1.089 -1.355,-1.513 -1.494,-0.502 -2.994,-0.746 -4.57,-0.742 L 23.747,-3.513 C 17.707,-3.293 12.393,-2.838 6.405,-2.026 4.135,-1.996 1.874,-1.281 0,0"
       style="fill:#ffffff;fill-opacity:1;fill-rule:nonzero;stroke:none"
       id="path1051"
       inkscape:connector-curvature="0" />
  </g>
  <g
     id="g1053"
     transform="matrix(1.72245,0,0,-1.7247795,283.41864,647.20436)">
    <path
       d="m 0,0 -2.683,-15.241 c -0.791,-5.436 -5.449,-9.772 -10.928,-10.172 -4.565,-0.753 -8.498,-1.512 -13.014,-2.513 -4.562,-0.59 -8.811,-3.58 -10.905,-7.675 -1.085,-2.762 -4.281,-4.059 -6.983,-2.833 -2.999,1.599 -4.793,5.092 -4.346,8.46 0.397,2.669 2.748,4.723 5.446,4.757 2.639,0.302 4.954,0.686 7.549,1.253 12.941,2.562 25.035,10.118 33.011,20.627 L 0.211,0.961 0.009,0.041 Z"
       style="fill:#ffffff;fill-opacity:1;fill-rule:nonzero;stroke:none"
       id="path1055"
       inkscape:connector-curvature="0" />
  </g>
  <g
     id="g1057"
     transform="matrix(1.72245,0,0,-1.7247795,188.45549,731.53483)">
    <path
       d="m 0,0 -7.078,-0.869 c -5.5,-0.529 -10.343,-1.267 -15.751,-2.399 l -4.126,-1.163 c -3.932,-1.123 -7.477,-3.749 -9.699,-7.181 -1.992,-3.641 -3.142,-7.633 -3.392,-11.775 -0.012,-0.436 -0.136,-0.864 -0.357,-1.24 -2.271,-0.227 -4.394,-0.195 -6.658,0.1 -0.539,0.321 -0.983,0.8 -1.264,1.361 l 0.859,-0.456 c 1.584,-1.017 3.734,-0.69 4.945,0.75 0.944,1.224 1.459,2.794 1.424,4.339 0.199,1.868 -0.531,3.844 -1.897,5.135 -0.864,0.733 -2.13,0.978 -3.205,0.62 l -0.106,-0.05 c -0.897,-0.561 -1.662,-1.235 -2.332,-2.054 l 1.463,13.091 1.687,0.833 c 1.219,0.371 2.322,1.141 3.09,2.157 l 0.087,0.184 c 0.336,1.412 0.354,2.867 0.051,4.286 3.388,0.841 6.319,1.689 9.632,2.789 9.444,3.436 20.208,3.5 29.693,0.177 0.55,-0.169 1.033,-0.58 1.287,-1.097 z"
       style="fill:#ffffff;fill-opacity:1;fill-rule:nonzero;stroke:none"
       id="path1059"
       inkscape:connector-curvature="0" />
  </g>
  <g
     id="g1061"
     transform="matrix(1.72245,0,0,-1.7247795,129.94095,565.0206)">
    <path
       d="M 0,0 -0.007,2.698 C -0.227,4.063 0.755,5.339 2.13,5.477 2.386,5.502 2.583,5.725 2.577,5.982 L 2.151,24.363 c -0.18,1.543 0.746,3.087 2.192,3.656 4.176,1.858 6.785,6.462 6.232,11 -0.184,3.939 -0.888,7.619 -2.173,11.349 -0.906,3.163 -2.916,6.035 -5.579,7.969 -2.463,1.334 -5.36,1.886 -8.141,1.551 1.536,1.692 4.158,1.997 6.041,0.701 2.588,-1.306 4.841,-3.032 6.777,-5.19 5.133,-5.937 8.702,-13.102 10.348,-20.775 0.493,-2.889 3.218,-4.847 6.113,-4.392 l 39.475,1.347 c 1.927,-0.063 3.898,0.61 5.385,1.838 l 0.118,0.143 c 0.48,0.87 0.739,1.846 0.752,2.84 l 1.537,-3.162 c 1.477,-2.899 2.227,-6.114 2.185,-9.368 -1.932,0.578 -3.7,0.974 -5.694,1.276 C 52.415,26.538 37.651,25.48 22.702,21.921 20.39,21.129 18.323,19.599 16.89,17.62 14.704,14.393 12.907,11.486 10.997,8.088 8.524,4.173 4.474,1.194 0,0"
       style="fill:#ffffff;fill-opacity:1;fill-rule:nonzero;stroke:none"
       id="path1063"
       inkscape:connector-curvature="0" />
  </g>
  <g
     id="g1065"
     transform="matrix(1.72245,0,0,-1.7247795,256.14226,775.72316)">
    <path
       d="m 0,0 -0.976,-0.169 -66.184,0.2 c -3.177,0.261 -6.006,0.693 -9.115,1.393 -0.035,3.672 0.917,7.325 2.74,10.512 2.409,3.455 6.17,6.022 10.266,7.005 6.33,1.985 12.611,2.934 19.245,2.907 8.546,0.405 17.291,-2.127 24.298,-7.037 3.838,-3.013 7.089,-5.772 10.688,-9.067 L -8.665,5.319 C -8.754,5.181 -8.937,5.134 -9.082,5.213 l -0.2,0.059 c -20.343,1.54 -38.251,2.111 -58.651,1.87 -0.468,0.084 -0.98,-0.086 -1.307,-0.432 -0.223,-0.236 -0.158,-0.627 0.129,-0.779 1.266,-0.668 2.644,-1.048 4.073,-1.123 L -10.082,2.853 C -6.54,2.789 -3.05,1.801 0,0"
       style="fill:#ffffff;fill-opacity:1;fill-rule:nonzero;stroke:none"
       id="path1067"
       inkscape:connector-curvature="0" />
  </g>
  <g
     id="g1069"
     transform="matrix(1.72245,0,0,-1.7247795,241.80183,494.8157)">
    <path
       d="M 0,0 1.431,-3.202 C 1.845,-3.854 1.904,-4.728 1.58,-5.43 0.677,-6.051 -0.478,-6.329 -1.565,-6.187 l -39.226,-1.259 c -1.681,-0.243 -3.261,0.899 -3.558,2.572 l -0.605,2.029 c -2.37,9.447 -7.76,18.168 -15.149,24.513 l 12.758,5 c 1.904,-2.751 3.749,-5.096 5.976,-7.593 2.467,-2.418 5.684,-4.077 9.083,-4.684 5.776,-1.283 12.059,1.441 15.072,6.532 0.271,0.696 0.813,1.294 1.48,1.63 0.785,-0.007 1.563,-0.437 1.987,-1.097 l 0.089,-0.104 c 1.536,-1.363 2.823,-2.708 4.116,-4.304 C -5.575,11.666 -2.513,6.196 0,0"
       style="fill:#ffffff;fill-opacity:1;fill-rule:nonzero;stroke:none"
       id="path1071"
       inkscape:connector-curvature="0" />
  </g>
  <g
     id="g1073"
     transform="matrix(1.72245,0,0,-1.7247795,260.82595,754.43878)">
    <path
       d="m 0,0 36.604,-0.337 c 3.543,0.15 6.842,-0.101 10.322,-0.788 1.381,-0.633 2.444,-1.971 2.748,-3.46 C 48.595,-5.596 47.128,-6.213 45.65,-6.277 28.308,-8.306 12.162,-8.458 -5.216,-6.76 c -1.577,0.14 -3.116,0.819 -4.282,1.888 -5.312,5.763 -11.249,10.416 -18.112,14.199 3.412,4.293 8.093,7.57 13.294,9.308 6.966,1.994 14.216,2.407 21.363,1.215 4.542,-0.517 8.617,-1.337 13.005,-2.62 C 28.434,15.021 36.064,9.605 40.916,2.422 33.781,2.689 27.572,2.721 20.435,2.527 8.737,1.983 -1.985,2.51 -13.574,4.2 -13.819,4.236 -14.059,4.079 -14.124,3.84 -14.189,3.601 -14.062,3.344 -13.833,3.25 -9.349,1.422 -4.828,0.36 0,0"
       style="fill:#ffffff;fill-opacity:1;fill-rule:nonzero;stroke:none"
       id="path1075"
       inkscape:connector-curvature="0" />
  </g>
  <g
     id="g1077"
     transform="matrix(1.72245,0,0,-1.7247795,141.98068,705.1739)">
    <path
       d="m 0,0 -6.459,-2.954 -6.667,7.16 c 3.819,1.868 6.299,6.094 6.068,10.34 -0.198,3.999 -0.486,7.472 -0.949,11.449 -0.122,1.18 -0.007,2.347 0.343,3.481 1.744,4.264 3.163,7.977 4.707,12.317 l 0.023,0.09 c 0.17,1.09 1.356,1.734 2.363,1.283 l 0.102,-0.033 c 3.927,-0.815 7.358,-1.716 11.178,-2.937 5.476,-1.602 10.479,-4.695 14.36,-8.877 3.303,-3.63 5.587,-8.147 6.555,-12.958 C 32.543,12.345 31.506,6.003 28.717,0.594 28.461,-0.115 28.026,-0.75 27.459,-1.245 26.682,-1.587 25.718,-1.477 25.039,-0.966 17.376,2.813 7.932,3.178 0,0"
       style="fill:#ffffff;fill-opacity:1;fill-rule:nonzero;stroke:none"
       id="path1079"
       inkscape:connector-curvature="0" />
  </g>
  <g
     id="g1081"
     transform="matrix(1.72245,0,0,-1.7247795,41.383253,627.5336)">
    <path
       d="M 0,0 -0.444,-0.162 C -1.961,12.243 0.45,25.164 6.341,36.187 l 0.048,0.135 c 0.238,1.163 1.578,1.759 2.601,1.156 6.659,-2.467 14.296,-2.491 20.971,-0.066 2.365,0.825 4.956,-0.547 5.6,-2.968 0.911,-3.801 4.69,-6.218 8.523,-5.45 l 6.45,0.58 c 0.745,-1.505 1.273,-2.975 1.655,-4.611 2.012,-9.784 1.925,-19.731 -0.259,-29.479 -0.511,-3.076 -1.797,-5.986 -3.727,-8.435 l -1.002,0.97 c -2.246,2.539 -5.993,3.615 -9.244,2.653 -2.85,-1.107 -4.961,-3.91 -5.235,-6.956 -0.026,-1.478 -1.026,-2.863 -2.422,-3.352 -7.352,-0.955 -15.073,0.571 -21.509,4.252 -1.219,0.897 -2.149,2.198 -2.604,3.642 L 3.748,-3.569 3.685,-3.437 C 2.802,-2.12 1.74,-1.008 0.465,-0.067 0.334,0.03 0.152,0.056 0,0"
       style="fill:#ffffff;fill-opacity:1;fill-rule:nonzero;stroke:none"
       id="path1083"
       inkscape:connector-curvature="0" />
  </g>
  <g
     id="g1085"
     transform="matrix(1.72245,0,0,-1.7247795,130.44321,569.52357)">
    <path
       d="m 0,0 1.183,0.365 c 4.047,0.954 7.76,3.527 10.076,6.981 2.25,3.667 6.507,6.068 10.809,6.096 l 40.081,2.447 c 6.586,0.603 13.471,-2.354 17.568,-7.546 4.86,-6.192 8.804,-12.11 12.647,-18.979 1.444,-2.93 2.058,-6.253 1.757,-9.506 -0.327,-4.519 -1.224,-8.715 -2.774,-12.974 -5.145,-13.488 -16.361,-24.819 -29.796,-30.1 -5.869,-2.477 -11.878,-3.88 -18.237,-4.258 l 3.753,7.128 c 3.328,5.591 5.348,11.794 5.947,18.273 0.565,3.495 -0.679,7.286 -3.205,9.766 -3.162,2.578 -6.803,4.411 -10.756,5.416 l -5.265,1.393 c -8.65,1.512 -16.787,2.008 -25.557,1.561 l -3.284,-0.002 -0.643,9.403 C 4.234,-9.413 2.73,-4.335 0,0"
       style="fill:#ffffff;fill-opacity:1;fill-rule:nonzero;stroke:none"
       id="path1087"
       inkscape:connector-curvature="0" />
  </g>
  <g
     id="g1089"
     transform="matrix(1.72245,0,0,-1.7247795,364.998,366.31889)">
    <path
       d="m 0,0 -1.042,-1.504 c -2.639,-5.41 -4.749,-10.255 -6.909,-15.873 -1.026,-2.494 -2.824,-4.673 -5.077,-6.154 -11.452,-7.567 -23.791,-12.808 -37.188,-15.795 -14.094,-2.886 -27.853,-3.55 -42.159,-2.036 -21.327,1.168 -42.183,8.091 -59.975,19.907 -18.089,12.684 -32.525,30.41 -41.284,50.693 -0.538,1.458 -0.774,2.974 -0.706,4.527 1.643,6.792 2.138,13.512 1.508,20.47 5.936,1.015 11.026,1.994 16.915,3.253 2.025,0.692 4.228,-0.467 4.805,-2.527 l 0.041,-0.101 c 4.128,-7.655 7.864,-14.181 12.378,-21.614 0.348,-0.981 1.269,-1.737 2.298,-1.886 1.03,-0.148 2.127,0.317 2.737,1.16 7.696,7.36 15.405,13.392 24.401,19.092 l 9.573,6.642 c 1.502,0.974 3.347,1.442 5.132,1.301 13.611,-1.463 25.836,-3.863 38.991,-7.652 8.735,-1.869 16.695,-7.767 21.025,-15.581 l 4.299,-7.352 c 4.984,-7.563 8.714,-15.224 11.595,-23.812 0.141,-0.627 0.473,-1.212 0.94,-1.655 l 0.145,-0.095 c 1.093,-0.471 2.442,-0.31 3.393,0.406 6.813,3.077 12.7,5.62 19.611,8.47 0.998,0.398 2.194,0.322 3.134,-0.199 z"
       style="fill:#ffffff;fill-opacity:1;fill-rule:nonzero;stroke:none"
       id="path1091"
       inkscape:connector-curvature="0" />
  </g>
  <g
     id="g1093"
     transform="matrix(1.72245,0,0,-1.7247795,400.2271,343.40317)">
    <path
       d="m 0,0 -1.124,-2.153 c -4.957,-8.426 -10.551,-15.683 -17.436,-22.622 -1.614,-1.725 -3.332,-3.137 -5.337,-4.386 2.396,7.4 6.204,14.1 11.337,19.945 C -9.14,-5.204 -4.854,-2.058 0,0"
       style="fill:#ffffff;fill-opacity:1;fill-rule:nonzero;stroke:none"
       id="path1095"
       inkscape:connector-curvature="0" />
  </g>
  <g
     id="g1097"
     transform="matrix(1.72245,0,0,-1.7247795,10.726397,233.04345)">
    <path
       d="m 0,0 c 0.761,-0.508 1.408,-1.077 2.011,-1.766 2.224,-2.753 3.811,-5.904 4.698,-9.33 2.219,-8.125 2.99,-16.258 2.336,-24.654 -0.02,-0.93 -0.167,-1.802 -0.451,-2.688 C 3.415,-26.092 0.572,-13.375 0,0"
       style="fill:#ffffff;fill-opacity:1;fill-rule:nonzero;stroke:none"
       id="path1099"
       inkscape:connector-curvature="0" />
  </g>
  <g
     style="fill:#808080"
     id="g1101"
     transform="matrix(1.72245,0,0,-1.7247795,199.46832,559.87058)">
    <path
       d="m 0,0 1.61,-0.151 c 8.717,-0.033 16.27,0.153 24.974,0.618 1.422,0.047 2.84,0.715 3.78,1.783 0.299,0.402 0.498,0.868 0.583,1.362 0.066,1.751 -1.172,3.358 -2.882,3.74 -1.949,0.62 -3.906,0.899 -5.951,0.85 C 14.769,7.964 8.485,7.671 1.15,7.224 -0.3,7.26 -1.755,6.476 -2.521,5.244 -2.831,4.625 -2.97,3.925 -2.92,3.234 -2.945,1.568 -1.66,0.145 0,0"
       style="fill-opacity:1;fill-rule:nonzero;stroke:none;fill:#808080"
       id="path1103"
       inkscape:connector-curvature="0" />
  </g>
  <g
     style="fill:#808080"
     id="g1105"
     transform="matrix(1.72245,0,0,-1.7247795,241.99613,595.91826)">
    <path
       d="m 0,0 c 9.295,-0.038 17.547,-0.558 26.773,-1.686 0.439,-0.053 0.875,0.214 1.027,0.63 0.151,0.415 -0.011,0.901 -0.381,1.143 -2.075,1.141 -4.344,1.809 -6.706,1.974 -15.709,1.671 -30.641,1.214 -46.219,-1.413 -2.147,-0.368 -4.086,-0.918 -6.106,-1.734 -0.428,-0.191 -0.662,-0.681 -0.541,-1.133 0.121,-0.453 0.567,-0.761 1.034,-0.714 C -20.576,-0.87 -10.744,0.057 0,0"
       style="fill-opacity:1;fill-rule:nonzero;stroke:none;fill:#808080"
       id="path1107"
       inkscape:connector-curvature="0" />
  </g>
  <g
     style=""
     id="g1109"
     transform="matrix(1.72245,0,0,-1.7247795,568.1348,356.61442)" />
  <g
     style=""
     id="g1113"
     transform="matrix(1.72245,0,0,-1.7247795,568.1348,333.21541)" />
  <g
     style="fill:#cccccc;fill-opacity:1;stroke:none;stroke-opacity:1;stroke-width:6.96211421;stroke-miterlimit:4;stroke-dasharray:none;paint-order:stroke fill markers;stroke-linecap:round;stroke-linejoin:round"
     id="g1117"
     transform="matrix(1.72245,0,0,-1.7247795,702.2699,373.67848)">
    <path
       d="m 0,0 7.419,25.332 c 0.068,0.231 -0.11,0.469 -0.352,0.469 h -1.89 c -0.162,0 -0.311,-0.113 -0.354,-0.269 L -1.057,4.217 -1.306,5.238 -7.047,25.534 c -0.044,0.155 -0.193,0.267 -0.353,0.267 h -0.884 c -0.157,0 -0.304,-0.108 -0.35,-0.259 l -6.257,-20.307 -0.28,-1.018 -0.249,1.021 -5.777,20.297 c -0.044,0.154 -0.192,0.266 -0.353,0.266 h -1.96 c -0.243,0 -0.421,-0.239 -0.352,-0.471 l 7.525,-25.331 c 0.045,-0.152 0.193,-0.263 0.352,-0.263 h 1.448 c 0.157,0 0.303,0.108 0.35,0.257 l 6.21,19.741 0.19,-0.677 L -2.152,0 c 0.045,-0.153 0.192,-0.264 0.351,-0.264 h 1.449 c 0.159,0 0.307,0.111 0.352,0.264"
       style="fill-opacity:1;fill-rule:nonzero;stroke:none;fill:#cccccc;stroke-opacity:1;stroke-width:6.96211421;stroke-miterlimit:4;stroke-dasharray:none;paint-order:stroke fill markers;stroke-linecap:round;stroke-linejoin:round"
       id="path1119"
       inkscape:connector-curvature="0" />
  </g>
  <g
     style="fill:#cccccc;fill-opacity:1;stroke:none;stroke-opacity:1;stroke-width:6.96211421;stroke-miterlimit:4;stroke-dasharray:none;paint-order:stroke fill markers;stroke-linecap:round;stroke-linejoin:round"
     id="g1121"
     transform="matrix(1.72245,0,0,-1.7247795,731.59271,374.13331)">
    <path
       d="m 0,0 h 12.418 c 0.203,0 0.367,0.164 0.367,0.367 v 1.59 c 0,0.203 -0.164,0.367 -0.367,0.367 H 2.116 v 9.653 h 8.995 c 0.203,0 0.367,0.164 0.367,0.367 v 1.59 c 0,0.202 -0.164,0.366 -0.367,0.366 H 2.116 v 9.424 h 9.719 c 0.203,0 0.367,0.164 0.367,0.367 v 1.607 c 0,0.203 -0.164,0.367 -0.367,0.367 H 0 c -0.203,0 -0.367,-0.164 -0.367,-0.367 V 0.367 C -0.367,0.164 -0.203,0 0,0"
       style="fill-opacity:1;fill-rule:nonzero;stroke:none;fill:#cccccc;stroke-opacity:1;stroke-width:6.96211421;stroke-miterlimit:4;stroke-dasharray:none;paint-order:stroke fill markers;stroke-linecap:round;stroke-linejoin:round"
       id="path1123"
       inkscape:connector-curvature="0" />
  </g>
  <g
     style=""
     id="g1125"
     transform="matrix(1.72245,0,0,-1.7247795,795.08277,374.13331)" />
  <g
     style=""
     id="g1129"
     transform="matrix(1.72245,0,0,-1.7247795,776.39376,333.21541)" />
  <g
     style="fill:#cccccc;fill-opacity:1;stroke:none;stroke-opacity:1;stroke-width:6.96211421;stroke-miterlimit:4;stroke-dasharray:none;paint-order:stroke fill markers;stroke-linecap:round;stroke-linejoin:round"
     id="g1133"
     transform="matrix(1.72245,0,0,-1.7247795,817.34449,374.13331)">
    <path
       d="m 0,0 h 12.418 c 0.203,0 0.367,0.164 0.367,0.367 v 1.59 c 0,0.203 -0.164,0.367 -0.367,0.367 H 2.116 v 9.653 h 8.995 c 0.203,0 0.367,0.164 0.367,0.367 v 1.59 c 0,0.202 -0.164,0.366 -0.367,0.366 H 2.116 v 9.424 h 9.719 c 0.203,0 0.367,0.164 0.367,0.367 v 1.607 c 0,0.203 -0.164,0.367 -0.367,0.367 H 0 c -0.203,0 -0.367,-0.164 -0.367,-0.367 V 0.367 C -0.367,0.164 -0.203,0 0,0"
       style="fill-opacity:1;fill-rule:nonzero;stroke:none;fill:#cccccc;stroke-opacity:1;stroke-width:6.96211421;stroke-miterlimit:4;stroke-dasharray:none;paint-order:stroke fill markers;stroke-linecap:round;stroke-linejoin:round"
       id="path1135"
       inkscape:connector-curvature="0" />
  </g>
  <g
     style=""
     id="g1137"
     transform="matrix(1.72245,0,0,-1.7247795,892.23683,351.01902)" />
  <g
     style=""
     id="g1141"
     transform="matrix(1.72245,0,0,-1.7247795,862.14541,333.21541)" />
  <g
     style=""
     id="g1145"
     transform="matrix(1.72245,0,0,-1.7247795,937.57426,374.13331)" />
  <g
     style=""
     id="g1149"
     transform="matrix(1.72245,0,0,-1.7247795,941.21853,333.21541)" />
  <g
     style="fill:#cccccc;fill-opacity:1;stroke:none;stroke-opacity:1;stroke-width:6.96211421;stroke-miterlimit:4;stroke-dasharray:none;paint-order:stroke fill markers;stroke-linecap:round;stroke-linejoin:round"
     id="g1153"
     transform="matrix(1.72245,0,0,-1.7247795,941.21853,352.86665)">
    <path
       d="m 0,0 h 3.36 c 1.058,0.016 2.041,-0.089 3.072,-0.328 1.042,-0.21 2.02,-0.765 2.734,-1.552 0.651,-0.837 0.996,-1.924 0.947,-2.982 L 10.09,-5.482 C 10.061,-6.985 9.195,-8.459 7.896,-9.217 6.8,-9.784 5.565,-10.058 4.332,-10.006 H 0 Z m 0,11.39348 h 3.855 c 0.69,0.009 1.329,-0.057 2.003,-0.205 0.89,-0.161 1.728,-0.662 2.291,-1.3700004 0.516,-0.766 0.777,-1.71 0.727,-2.632 0.069,-1.553 -0.759,-3.123 -2.08,-3.942 -1.089,-0.645 -2.365,-0.969 -3.63,-0.921 H 0 Z m -2.1157479,-23.723555 h 6.788 c 4.358,-0.308 8.0779999,3.2400003 7.9759999,7.6080003 0.087,2.888 -1.94,5.55100004 -4.7469999,6.235 2.1719999,1.124 3.5979999,3.544 3.5279999,5.989 0.065,1.679 -0.655,3.4039997 -1.8959999,4.5379997 -1.365,1.16 -3.21,1.786 -4.999,1.695 h -6.65 c -0.203,0 -0.367,-0.164 -0.367,-0.367 v -25.331 c 0,-0.203 0.164,-0.367 0.367,-0.367 M -45.907353,11.39348 h 3.961 c 1.445,0.019 2.791,-0.133 4.196,-0.471 2.17,-0.453 4.167,-1.8540004 5.331,-3.7410004 1.022,-1.891 1.519,-4.05 1.429,-6.19700003 l -0.108,-1.974 c -0.169,-2.97399997 -1.886,-5.86099997 -4.418,-7.42999997 -2.068,-1.127 -4.431,-1.6799996 -6.783,-1.5869996 h -3.608 z m 17.470127,-10.3222532 -0.113,2.14 c -0.177,3.504 -2.212,6.9080002 -5.215,8.7220002 -2.426,1.284 -5.175,1.909 -7.917,1.802 h -6.341 c -0.203,0 -0.367,-0.164 -0.367,-0.367 v -25.331 c 0,-0.2 0.161,-0.363 0.361,-0.367 l 7.52,0.058 c 3.121,0.122 6.228,1.471 8.447,3.6679998 2.421,2.549 3.775,6.164 3.625,9.675 M -95.692049,11.39348 h 4.359 l 1.026,-0.048 c 1.138,-0.064 2.261,-0.504 3.139,-1.23 0.955,-0.8840004 1.494,-2.2310004 1.412,-3.5290004 0.074,-1.676 -0.78,-3.381 -2.166,-4.327 -1.125,-0.685 -2.457,-1.031 -3.774,-0.978 h -3.996 z m 10.850248,-23.723555 h 1.978 c 0.267,0 0.446,0.28 0.333,0.522 l -3.77,8.0880003 -0.712,1.36 c -0.383,0.787 -0.948,1.46900004 -1.649,1.99200004 3.201,0.803 5.518,3.84499996 5.441,7.14399996 0.075,1.86 -0.697,3.7709997 -2.042,5.0579997 -1.496,1.304 -3.543,2.009 -5.524,1.901 h -7.021 c -0.203,0 -0.367,-0.164 -0.367,-0.367 v -25.331 c 0,-0.203 0.164,-0.367 0.367,-0.367 h 1.749 c 0.203,0 0.367,0.164 0.367,0.367 v 10.9210003 h 2.791 c 0.835,0.031 1.687,-0.222 2.369,-0.705 0.882,-0.816 1.559,-1.823 1.982,-2.949 l 3.374,-7.4190003 c 0.058,-0.128 0.194,-0.215 0.334,-0.215"
       style="fill-opacity:1;fill-rule:nonzero;stroke:none;fill:#cccccc;stroke-opacity:1;stroke-width:6.96211421;stroke-miterlimit:4;stroke-dasharray:none;paint-order:stroke fill markers;stroke-linecap:round;stroke-linejoin:round"
       id="path1155" />
  </g>
  <g
     style="fill:#cccccc;fill-opacity:1;stroke:none;stroke-opacity:1;stroke-width:6.96211421;stroke-miterlimit:4;stroke-dasharray:none;paint-order:stroke fill markers;stroke-linecap:round;stroke-linejoin:round"
     id="g1157"
     transform="matrix(1.72245,0,0,-1.7247795,989.7601,357.05062)">
    <path
       d="m 0,0 8.137,15.625 c 0.127,0.243 -0.051,0.536 -0.325,0.536 h -1.89 c -0.135,0 -0.267,-0.081 -0.328,-0.202 L -0.593,3.708 -1.146,2.534 l -0.516,1.213 -5.9,12.207 c -0.059,0.123 -0.193,0.207 -0.33,0.207 h -1.961 c -0.27,0 -0.449,-0.286 -0.329,-0.529 l 7.717,-15.663 v -9.506 c 0,-0.203 0.164,-0.367 0.367,-0.367 h 1.731 C -0.164,-9.904 0,-9.74 0,-9.537 Z"
       style="fill-opacity:1;fill-rule:nonzero;stroke:none;fill:#cccccc;stroke-opacity:1;stroke-width:6.96211421;stroke-miterlimit:4;stroke-dasharray:none;paint-order:stroke fill markers;stroke-linecap:round;stroke-linejoin:round"
       id="path1159"
       inkscape:connector-curvature="0" />
  </g>
  <g
     style=""
     id="g1161"
     transform="matrix(1.72245,0,0,-1.7247795,626.33689,374.89549)" />
  <g
     style="fill:#cccccc;fill-opacity:1;stroke:none;stroke-opacity:1;stroke-width:6.96211421;stroke-miterlimit:4;stroke-dasharray:none;paint-order:stroke fill markers;stroke-linecap:round;stroke-linejoin:round"
     id="g1165"
     transform="matrix(1.72245,0,0,-1.7247795,643.17074,351.45095)">
    <path
       d="m 0,0 -0.062,-1.588 c -0.091,-2.435 -1.022,-4.855 -2.585,-6.724 -1.792,-1.955 -4.527,-3.075 -7.176,-2.939 -2.574,-0.104 -5.215,1.031 -6.912,2.969 -1.818,2.246 -2.779,5.226 -2.617,8.111 -0.138,2.905 0.882,5.899 2.765,8.116 1.718,1.974 4.39,3.145 7.006,3.07 3.058,0.13 6.159,-1.456 7.844,-4.011 C -0.509,4.897 0.101,2.437 0,0 m -9.773201,-13.592775 c 3.909,-0.172 7.878,1.85 10.03600004,5.1139998 1.59099996,2.607 2.39299996,5.696 2.27299996,8.74800001 0.155,3.38699999 -1.051,6.87399999 -3.26599996,9.44199999 C -2.860201,12.070225 -6.116201,13.449225 -9.293201,13.338225 c -3.406,0.17 -6.92,-1.268 -9.23,-3.7780002 -2.301,-2.718 -3.542,-6.387 -3.364,-9.94499999 -0.148,-3.41300001 1.063,-6.92300001 3.284,-9.51900001 2.2,-2.4219998 5.561,-3.8269998 8.83,-3.6889998 m -33.790293,24.165454 h 3.678 c 0.865,0.012 1.669,-0.076 2.512,-0.273 1.116,-0.222 2.156,-0.888 2.826,-1.808 0.599,-0.961 0.9,-2.112 0.849,-3.244 l -0.032,-0.779 c -0.054,-1.747 -1.094,-3.444 -2.626,-4.286 -1.233,-0.601 -2.599,-0.888 -3.97,-0.835 h -3.237 z m 0,-13.5663776 h 3.262 c 2.421,-0.129 4.923,0.755 6.725,2.37599999 1.578,1.563 2.484,3.83700001 2.414,6.05600001 0.168,2.317 -0.949,4.7099996 -2.834,6.0679996 -1.664,1.007 -3.638,1.505 -5.58,1.408 h -6.103 c -0.203,0 -0.367,-0.164 -0.367,-0.367 v -25.331 c 0,-0.203 0.164,-0.367 0.367,-0.367 h 1.749 c 0.203,0 0.367,0.164 0.367,0.367 z"
       style="fill-opacity:1;fill-rule:nonzero;stroke:none;fill:#cccccc;stroke-opacity:1;stroke-width:6.96211421;stroke-miterlimit:4;stroke-dasharray:none;paint-order:stroke fill markers;stroke-linecap:round;stroke-linejoin:round"
       id="path1167" />
  </g>
</svg>
