<?xml version="1.0" encoding="UTF-8" standalone="no"?>
<svg
   xmlns:dc="http://purl.org/dc/elements/1.1/"
   xmlns:cc="http://creativecommons.org/ns#"
   xmlns:rdf="http://www.w3.org/1999/02/22-rdf-syntax-ns#"
   xmlns:svg="http://www.w3.org/2000/svg"
   xmlns="http://www.w3.org/2000/svg"
   xml:space="preserve"
   enable-background="new 0 0 1269.048 102.38"
   viewBox="0 0 1244.303 80.016894"
   height="80.016891"
   width="1244.303"
   y="0px"
   x="0px"
   id="Layer_1"
   version="1.1"><metadata
   id="metadata47"><rdf:RDF><cc:Work
       rdf:about=""><dc:format>image/svg+xml</dc:format><dc:type
         rdf:resource="http://purl.org/dc/dcmitype/StillImage" /><dc:title></dc:title></cc:Work></rdf:RDF></metadata><defs
   id="defs45" />
<path
   id="path2"
   d="m 610.362,16.015111 h -42.646 v 16 h 21.323 v 16 h -21.323 v 32 H 539.285 V 8.0161111 c 0,0 0,-8.01599998889 7.95,-8.00099999 13.425,-0.034 63.127,0 63.127,0 z"
   fill="#59595A" />
<path
   id="path4"
   d="M 650.9,80.015111 H 622.462 V 0.01511111 H 650.9 Z"
   fill="#59595A" />
<path
   id="path6"
   d="m 1244.303,80.015111 c 0,0 -47.144,0.004 -62.564,0 -8.515,-0.002 -8.515,-8.001 -8.515,-8.001 V 8.0161111 c 0,0 0,-8.00199999 8.233,-8.00099999 10.921,0.001 62.846,0 62.846,0 V 16.015111 h -42.646 v 16 h 21.322 v 16 h -21.322 v 16 h 42.646 z"
   fill="#59595A" />
<path
   id="path8"
   d="m 113.726,11.544111 v 68.469 h -28.43 v -63.996 H 71.078 v 63.996 h -28.43 v -63.996 H 28.433 v 63.996 H 0 V 0.01711111 h 102.215 c 6.367,0 11.511,5.15199999 11.511,11.52699989"
   fill="#D8D8D8" />
<path
   id="path10"
   d="m 862.73,11.544111 v 68.469 H 834.3 v -63.996 h -14.219 v 63.996 h -28.43 v -63.996 h -14.215 v 63.996 H 749.002 V 0.01711111 h 102.215 c 6.368,0 11.513,5.15199999 11.513,11.52699989"
   fill="#59595A" />
<path
   id="path12"
   d="M 990.108,68.485111 V 0.01711111 h -28.43 V 64.013111 H 947.459 V 0.01711111 h -28.43 V 64.013111 H 904.814 V 0.01711111 H 876.381 V 80.013111 h 102.215 c 6.367,0 11.512,-5.153 11.512,-11.528"
   fill="#59595A" />
<path
   id="path14"
   d="m 139.457,0.01711111 h 48.051 c 6.367,0 11.516,5.15199999 11.516,11.52699989 v 68.469 H 170.59 v -32 h -14.215 v 32 h -28.434 v -68.469 c 0,-6.3749999 5.149,-11.52699989 11.516,-11.52699989 M 170.59,16.017111 h -14.215 v 16 h 14.215 z"
   fill="#D8D8D8" />
<path
   id="path16"
   d="M 358.097,80.013111 H 298.531 V 0.01711111 h 28.434 V 64.013111 H 341.18 V 0.01711111 h 28.43 V 68.486111 c -0.001,6.374 -5.145,11.527 -11.513,11.527"
   fill="#D8D8D8" />
<rect
   id="rect18"
   height="79.996002"
   width="28.43"
   fill="#D8D8D8"
   y="0.017111257"
   x="383.828" />
<path
   id="path20"
   d="m 497.551,11.544111 v 68.469 h -28.43 v -63.996 h -14.215 v 63.996 H 426.472 V 0.01711111 h 59.566 c 6.368,0 11.513,5.15199999 11.513,11.52699989"
   fill="#D8D8D8" />
<path
   id="path22"
   d="m 284.316,11.544111 v 18.535 c 0.043,3.852 -0.168,7.816 -5.172,7.758 -3.113,0.039 -2.625,4.625 0,4.355 5.129,0.379 5.309,4.277 5.172,7.766 v 30.055 h -28.434 v -32 h -14.215 v 32 h -28.43 V 0.01711111 h 59.564 c 6.367,0 11.515,5.15199999 11.515,11.52699989 m -28.433,4.473 h -14.215 v 16 h 14.215 z"
   fill="#D8D8D8" />
<path
   id="path24"
   d="m 735.335,11.544111 v 18.535 c 0.043,3.852 -0.168,7.816 -5.172,7.758 -3.113,0.039 -2.625,4.625 0,4.355 5.129,0.379 5.309,4.277 5.172,7.766 v 30.055 h -28.434 v -32 h -14.215 v 32 h -28.43 V 0.01711111 h 59.563 c 6.368,0 11.516,5.15199999 11.516,11.52699989 m -28.433,4.473 h -14.215 v 16 h 14.215 z"
   fill="#59595A" />
<path
   id="path26"
   d="m 1015.277,0.01711111 h 48.051 c 6.367,0 11.516,5.15199999 11.516,11.52699989 v 68.469 h -28.434 v -32 h -14.215 v 32 h -28.434 v -68.469 c 0,-6.3749999 5.148,-11.52699989 11.516,-11.52699989 m 31.132,15.99999989 h -14.215 v 16 h 14.215 z"
   fill="#59595A" />
<path
   id="path28"
   d="m 1159.573,11.544111 v 18.535 c 0.043,3.852 -0.168,7.816 -5.172,7.758 -3.113,0.039 -2.625,4.625 0,4.355 5.129,0.379 5.309,4.277 5.172,7.766 v 30.055 h -28.434 v -32 h -14.215 v 32 h -28.43 V 0.01711111 h 59.563 c 6.368,0 11.516,5.15199999 11.516,11.52699989 m -28.433,4.473 h -14.215 v 16 h 14.215 z"
   fill="#59595A" />
<g
   transform="translate(-12.199,-9.2308889)"
   id="g30">
</g>
<g
   transform="translate(-12.199,-9.2308889)"
   id="g32">
</g>
<g
   transform="translate(-12.199,-9.2308889)"
   id="g34">
</g>
<g
   transform="translate(-12.199,-9.2308889)"
   id="g36">
</g>
<g
   transform="translate(-12.199,-9.2308889)"
   id="g38">
</g>
<g
   transform="translate(-12.199,-9.2308889)"
   id="g40">
</g>
</svg>
