<?xml version="1.0" encoding="UTF-8" standalone="no"?>
<svg
   xmlns:dc="http://purl.org/dc/elements/1.1/"
   xmlns:cc="http://creativecommons.org/ns#"
   xmlns:rdf="http://www.w3.org/1999/02/22-rdf-syntax-ns#"
   xmlns:svg="http://www.w3.org/2000/svg"
   xmlns="http://www.w3.org/2000/svg"
   xml:space="preserve"
   enable-background="new 0 0 1269.048 102.38"
   viewBox="0 0 699.77272 44.999978"
   height="44.999977"
   width="699.77271"
   y="0px"
   x="0px"
   id="Layer_1"
   version="1.1"><metadata
   id="metadata47"><rdf:RDF><cc:Work
       rdf:about=""><dc:format>image/svg+xml</dc:format><dc:type
         rdf:resource="http://purl.org/dc/dcmitype/StillImage" /><dc:title></dc:title></cc:Work></rdf:RDF></metadata><defs
   id="defs45" />
<path
   style="stroke-width:0.562381;fill:#ff4c00;fill-opacity:1"
   id="path2"
   d="m 343.25616,9.0065986 h -23.98331 v 8.9981004 h 11.99165 v 8.9981 H 319.27285 V 44.999 H 303.28379 V 4.5081108 c 0,0 0,-4.508048309234 4.47093,-4.4996126 7.54997,-0.01912096 35.50144,0 35.50144,0 z" />
<path
   style="stroke-width:0.562381;fill:#ff4c00;fill-opacity:1"
   id="path4"
   d="m 366.05397,44.999 h -15.993 V 0.0084982 h 15.993 z" />
<path
   style="stroke-width:0.562381;fill:#ff4c00;fill-opacity:1"
   id="path6"
   d="m 699.77271,44.999 c 0,0 -26.5129,0.0022 -35.18482,0 -4.78868,-0.0011 -4.78868,-4.499612 -4.78868,-4.499612 V 4.5081108 c 0,0 0,-4.50017498 4.63009,-4.4996126 6.14176,5.6239e-4 35.34341,0 35.34341,0 V 9.0065986 H 675.7894 v 8.9981004 h 11.99109 v 8.9981 H 675.7894 V 36.0009 h 23.98331 z" />
<path
   style="stroke-width:0.562381;fill:#e5e5e5;fill-opacity:1"
   id="path8"
   d="M 63.957373,6.4921919 V 44.997875 h -15.9885 V 9.0077233 H 39.972936 V 44.997875 H 23.984437 V 9.0077233 h -7.99425 V 44.997875 H 0 V 0.00962297 h 57.483802 c 3.580682,0 6.473571,2.89738833 6.473571,6.48256893" />
<path
   style="stroke-width:0.562381;fill:#ff4c00;fill-opacity:1"
   id="path10"
   d="M 485.1832,6.4921919 V 44.997875 H 469.1947 V 9.0077233 h -7.9965 V 44.997875 H 445.2097 V 9.0077233 h -7.99425 V 44.997875 H 421.2247 V 0.00962297 h 57.4838 c 3.58125,0 6.4747,2.89738833 6.4747,6.48256893" />
<path
   style="stroke-width:0.562381;fill:#ff4c00;fill-opacity:1"
   id="path12"
   d="M 556.8182,38.514744 V 0.00962297 H 540.8297 V 35.999775 h -7.9965 V 0.00962297 H 516.8447 V 35.999775 h -7.99425 V 0.00962297 H 492.86026 V 44.997875 h 57.48381 c 3.58068,0 6.47413,-2.89795 6.47413,-6.483131" />
<path
   style="stroke-width:0.562381;fill:#e5e5e5;fill-opacity:1"
   id="path14"
   d="m 78.428006,0.00962297 h 27.022984 c 3.58068,0 6.47638,2.89738833 6.47638,6.48256893 V 44.997875 H 95.936622 v -17.9962 h -7.99425 v 17.9962 H 71.951623 V 6.4921919 c 0,-3.5851806 2.895701,-6.48256893 6.476383,-6.48256893 M 95.936622,9.0077233 h -7.99425 v 8.9981007 h 7.99425 z" />
<path
   style="stroke-width:0.562381;fill:#e5e5e5;fill-opacity:1"
   id="path16"
   d="M 201.38705,44.997875 H 167.88824 V 0.00962297 h 15.99075 V 35.999775 h 7.99425 V 0.00962297 h 15.9885 V 38.515306 c -5.6e-4,3.584619 -2.89345,6.482569 -6.47469,6.482569" />
<rect
   style="stroke-width:0.562381;fill:#e5e5e5;fill-opacity:1"
   id="rect18"
   height="44.988255"
   width="15.9885"
   y="0.0096230544"
   x="215.85768" />
<path
   style="stroke-width:0.562381;fill:#e5e5e5;fill-opacity:1"
   id="path20"
   d="M 279.81337,6.4921919 V 44.997875 h -15.9885 V 9.0077233 h -7.99425 V 44.997875 H 239.83987 V 0.00962297 h 33.4988 c 3.58124,0 6.4747,2.89738833 6.4747,6.48256893" />
<path
   style="stroke-width:0.562381;fill:#e5e5e5;fill-opacity:1"
   id="path22"
   d="M 159.89399,6.4921919 V 16.915929 c 0.0242,2.166292 -0.0945,4.395572 -2.90863,4.362954 -1.75069,0.02193 -1.47625,2.601013 0,2.44917 2.88445,0.213143 2.98568,2.405305 2.90863,4.367453 v 16.902369 h -15.99074 v -17.9962 H 135.909 v 17.9962 H 119.9205 V 0.00962297 h 33.49767 c 3.58069,0 6.47582,2.89738833 6.47582,6.48256893 m -15.99018,2.5155314 h -7.99425 v 8.9981007 h 7.99425 z" />
<path
   style="stroke-width:0.562381;fill:#ff4c00;fill-opacity:1"
   id="path24"
   d="M 413.53864,6.4921919 V 16.915929 c 0.0242,2.166292 -0.0945,4.395572 -2.90864,4.362954 -1.75069,0.02193 -1.47625,2.601013 0,2.44917 2.88445,0.213143 2.98568,2.405305 2.90864,4.367453 v 16.902369 h -15.99075 v -17.9962 h -7.99425 v 17.9962 h -15.9885 V 0.00962297 h 33.49711 c 3.58125,0 6.47639,2.89738833 6.47639,6.48256893 m -15.99019,2.5155314 h -7.99425 v 8.9981007 h 7.99425 z" />
<path
   style="stroke-width:0.562381;fill:#ff4c00;fill-opacity:1"
   id="path26"
   d="m 570.97277,0.00962297 h 27.02299 c 3.58068,0 6.47638,2.89738833 6.47638,6.48256893 V 44.997875 h -15.99075 v -17.9962 h -7.99425 v 17.9962 H 564.49639 V 6.4921919 c 0,-3.5851806 2.89514,-6.48256893 6.47638,-6.48256893 m 17.50806,8.99810033 h -7.99425 v 8.9981007 h 7.99425 z" />
<path
   style="stroke-width:0.562381;fill:#ff4c00;fill-opacity:1"
   id="path28"
   d="M 652.12214,6.4921919 V 16.915929 c 0.0242,2.166292 -0.0945,4.395572 -2.90863,4.362954 -1.7507,0.02193 -1.47625,2.601013 0,2.44917 2.88445,0.213143 2.98568,2.405305 2.90863,4.367453 v 16.902369 h -15.99075 v -17.9962 h -7.99425 v 17.9962 h -15.9885 V 0.00962297 h 33.49712 c 3.58124,0 6.47638,2.89738833 6.47638,6.48256893 m -15.99018,2.5155314 h -7.99425 v 8.9981007 h 7.99425 z" />
<g
   transform="translate(-12.199,-9.2308889)"
   id="g30">
</g>
<g
   transform="translate(-12.199,-9.2308889)"
   id="g32">
</g>
<g
   transform="translate(-12.199,-9.2308889)"
   id="g34">
</g>
<g
   transform="translate(-12.199,-9.2308889)"
   id="g36">
</g>
<g
   transform="translate(-12.199,-9.2308889)"
   id="g38">
</g>
<g
   transform="translate(-12.199,-9.2308889)"
   id="g40">
</g>
</svg>
