<?xml version="1.0" encoding="UTF-8" standalone="no"?>
<svg
   xmlns:dc="http://purl.org/dc/elements/1.1/"
   xmlns:cc="http://creativecommons.org/ns#"
   xmlns:rdf="http://www.w3.org/1999/02/22-rdf-syntax-ns#"
   xmlns:svg="http://www.w3.org/2000/svg"
   xmlns="http://www.w3.org/2000/svg"
   version="1.1"
   id="Layer_1"
   x="0px"
   y="0px"
   width="864px"
   height="2016px"
   viewBox="0 0 864 2016"
   enable-background="new 0 0 864 2016"
   xml:space="preserve"><metadata
   id="metadata15"><rdf:RDF><cc:Work
       rdf:about=""><dc:format>image/svg+xml</dc:format><dc:type
         rdf:resource="http://purl.org/dc/dcmitype/StillImage" /><dc:title></dc:title></cc:Work></rdf:RDF></metadata><defs
   id="defs13" />
<path
   fill="#00c3ff"
   d="M432,619.2c-214.729,0-388.8,174.071-388.8,388.8s174.071,388.8,388.8,388.8s388.8-174.071,388.8-388.8  S646.729,619.2,432,619.2z M334.8,1131.812v21.945c-0.008,20.137-16.339,36.454-36.476,36.445  c-20.125-0.008-36.438-16.32-36.446-36.445v-21.945c-34.833-20.213-46.686-64.838-26.473-99.671  c6.37-10.979,15.495-20.104,26.473-26.474V862.243c0.008-20.137,16.339-36.454,36.476-36.445  c20.125,0.008,36.438,16.32,36.445,36.445v143.424c34.834,20.213,46.687,64.838,26.474,99.671  C354.903,1116.316,345.777,1125.441,334.8,1131.812z M468.461,1010.246v143.598c-0.009,20.137-16.34,36.453-36.477,36.445  c-20.124-0.009-36.437-16.321-36.445-36.445V1010.16c-34.81-20.254-46.609-64.893-26.355-99.702  c6.354-10.92,15.436-20.002,26.355-26.355V862.07c0.009-20.137,16.34-36.454,36.477-36.445c20.124,0.008,36.437,16.32,36.445,36.445  v22.032c34.834,20.213,46.686,64.837,26.473,99.671C488.563,994.751,479.438,1003.876,468.461,1010.246z M602.121,1131.812v21.945  c-0.008,20.137-16.339,36.454-36.476,36.445c-20.125-0.008-36.438-16.32-36.445-36.445v-21.945  c-34.834-20.213-46.687-64.838-26.474-99.671c6.37-10.979,15.496-20.104,26.474-26.474V862.243  c0.008-20.137,16.339-36.454,36.476-36.445c20.125,0.008,36.438,16.32,36.445,36.445v143.424  c34.834,20.213,46.687,64.838,26.474,99.671C622.225,1116.316,613.1,1125.441,602.121,1131.812z"
   id="path2"
   style="fill-opacity:1;stroke:none;" />
<circle
   fill="#00c3ff"
   cx="298.339"
   cy="1068.739"
   r="36.461"
   id="circle4"
   style="fill-opacity:1;stroke:none;" />
<circle
   fill="#00c3ff"
   cx="432"
   cy="947.261"
   r="36.461"
   id="circle6"
   style="fill-opacity:1;stroke:none;" />
<circle
   fill="#00c3ff"
   cx="565.661"
   cy="1068.739"
   r="36.461"
   id="circle8"
   style="fill-opacity:1;stroke:none;" />
</svg>
