<?xml version="1.0" encoding="UTF-8" standalone="no"?>
<svg
   xmlns:dc="http://purl.org/dc/elements/1.1/"
   xmlns:cc="http://creativecommons.org/ns#"
   xmlns:rdf="http://www.w3.org/1999/02/22-rdf-syntax-ns#"
   xmlns:svg="http://www.w3.org/2000/svg"
   xmlns="http://www.w3.org/2000/svg"
   fill="#c23616"
   viewBox="0 0 100 100"
   version="1.1"
   id="svg4">
  <metadata
     id="metadata10">
    <rdf:RDF>
      <cc:Work
         rdf:about="">
        <dc:format>image/svg+xml</dc:format>
        <dc:type
           rdf:resource="http://purl.org/dc/dcmitype/StillImage" />
        <dc:title></dc:title>
      </cc:Work>
    </rdf:RDF>
  </metadata>
  <defs
     id="defs8" />
  <path
     d="M50 5a45 45 0 1 0 0 90 45 45 0 0 0 0-90zm15.75 53.11a5.62 5.62 0 1 1-7.95 7.96l-7.96-7.96-7.95 7.96a5.62 5.62 0 1 1-7.96-7.96l7.96-7.95-7.96-7.96a5.62 5.62 0 1 1 7.96-7.95l7.95 7.95 7.96-7.95a5.62 5.62 0 1 1 7.95 7.95l-7.95 7.96 7.95 7.95z"
     id="path2"
     style="fill:#ff4c00;fill-opacity:1" />
</svg>
