<?xml version="1.0" encoding="UTF-8" standalone="no"?>
<svg
   xmlns:dc="http://purl.org/dc/elements/1.1/"
   xmlns:cc="http://creativecommons.org/ns#"
   xmlns:rdf="http://www.w3.org/1999/02/22-rdf-syntax-ns#"
   xmlns:svg="http://www.w3.org/2000/svg"
   xmlns="http://www.w3.org/2000/svg"
   id="svg8"
   version="1.1"
   viewBox="0 0 78 97.5">
  <metadata
     id="metadata14">
    <rdf:RDF>
      <cc:Work
         rdf:about="">
        <dc:format>image/svg+xml</dc:format>
        <dc:type
           rdf:resource="http://purl.org/dc/dcmitype/StillImage" />
        <dc:title></dc:title>
      </cc:Work>
    </rdf:RDF>
  </metadata>
  <defs
     id="defs12" />
  <path
     d="M 38.98,77.8 A 38.67,38.67 0 0 1 0.35,39.19 38.67,38.67 0 0 1 38.98,0.55 38.67,38.67 0 0 1 77.61,39.18 38.67,38.67 0 0 1 38.98,77.81 Z m 0,-71.95 A 33.37,33.37 0 0 0 5.65,39.18 33.37,33.37 0 0 0 38.98,72.51 33.36,33.36 0 0 0 72.31,39.18 33.36,33.36 0 0 0 38.98,5.85 Z"
     id="path2"
     style="fill:#00f000;fill-rule:evenodd;fill-opacity:1" />
  <path
     d="m 33.74,51.96 c -0.7,0 -1.38,-0.28 -1.88,-0.77 l -9.78,-9.78 a 2.6516504,2.6516504 0 1 1 3.75,-3.75 l 7.9,7.9 18.4,-18.39 a 2.6516504,2.6516504 0 1 1 3.75,3.75 L 35.6,51.2 c -0.5,0.5 -1.17,0.77 -1.87,0.77"
     id="path4"
     style="fill:#00f000;fill-rule:evenodd;fill-opacity:1" />
</svg>
