<?xml version="1.0" encoding="UTF-8"?>
<svg version="1.1" viewBox="0 0 100 100" xmlns="http://www.w3.org/2000/svg" xmlns:cc="http://creativecommons.org/ns#" xmlns:dc="http://purl.org/dc/elements/1.1/" xmlns:rdf="http://www.w3.org/1999/02/22-rdf-syntax-ns#">
 <metadata>
  <rdf:RDF>
   <cc:Work rdf:about="">
    <dc:format>image/svg+xml</dc:format>
    <dc:type rdf:resource="http://purl.org/dc/dcmitype/StillImage"/>
    <dc:title/>
   </cc:Work>
  </rdf:RDF>
 </metadata>
 <switch>
  <g>
   <g fill="#ff3c00">
    <path d="m83.2 32.3c-2 0-3.6 1.6-3.6 3.6v49c0 3-2.4 5.4-5.4 5.4h-48.4c-3 0-5.4-2.4-5.4-5.4v-49c0-2-1.6-3.6-3.6-3.6s-3.6 1.6-3.6 3.6v49c0 6.9 5.6 12.6 12.6 12.6h48.5c6.9 0 12.6-5.6 12.6-12.6v-49c-0.1-2-1.7-3.6-3.7-3.6z"/>
    <path d="m90.1 17.4h-24.6v-3.7c0-6.2-5.1-11.3-11.3-11.3h-8.5c-6.2 0-11.3 5.1-11.3 11.3v3.7h-24.5c-2 0-3.6 1.6-3.6 3.6s1.6 3.6 3.6 3.6h80.2c2 0 3.6-1.6 3.6-3.6s-1.6-3.6-3.6-3.6zm-48.4-3.6c0-2.2 1.8-4.1 4.1-4.1h8.5c2.2 0 4.1 1.8 4.1 4.1v3.7h-16.7z" fill-rule="evenodd"/>
    <g shape-rendering="auto">
     <path d="m33.9 74.5c0.7 0.7 1.6 1.1 2.5 1.1s1.8-0.4 2.5-1.1l11.1-11 11 11c0.7 0.7 1.6 1.1 2.5 1.1s1.8-0.4 2.5-1.1c1.4118-1.4069 1.4118-3.6931 0-5.1l-10.9-11 11.1-11.1c1.4118-1.4069 1.4118-3.6931 0-5.1-1.4069-1.4118-3.6931-1.4118-5.1 0l-11.1 11.1-11.1-11.1c-1.4069-1.4118-3.6931-1.4118-5.1 0-1.4118 1.4069-1.4118 3.6931 0 5.1l11.1 11.1-11 11c-1.4118 1.4069-1.4118 3.6931 0 5.1z" color="#000000" color-rendering="auto" dominant-baseline="auto" image-rendering="auto" solid-color="#000000" stop-color="#000000" style="font-feature-settings:normal;font-variant-alternates:normal;font-variant-caps:normal;font-variant-east-asian:normal;font-variant-ligatures:normal;font-variant-numeric:normal;font-variant-position:normal;font-variation-settings:normal;inline-size:0;isolation:auto;mix-blend-mode:normal;shape-margin:0;shape-padding:0;text-decoration-color:#000000;text-decoration-line:none;text-decoration-style:solid;text-indent:0;text-orientation:mixed;text-transform:none;white-space:normal"/>
     <path d="m36.35 40.645c-1.0517 0-2.1036 0.40069-2.9023 1.2012-1.6036 1.5981-1.6036 4.2105 0 5.8086l10.746 10.746-10.646 10.646c-1.6024 1.5982-1.6032 4.209 0 5.8066 0.78418 0.78418 1.8054 1.2461 2.8535 1.2461 1.0473 0 2.0676-0.46116 2.8516-1.2441l0.001953-0.001953 10.744-10.648 10.648 10.648c0.78418 0.78418 1.8054 1.2461 2.8535 1.2461s2.0693-0.46191 2.8535-1.2461c1.6026-1.597 1.6024-4.2063 0.001953-5.8047l-0.001953-0.003906-10.549-10.643 10.748-10.748c1.603-1.5974 1.6036-4.2084 0.001954-5.8066-1.5981-1.6036-4.2105-1.6036-5.8086 0l-10.746 10.746-10.746-10.746c-0.79903-0.80181-1.8517-1.2031-2.9043-1.2031zm0 0.99414c0.79399 0 1.5875 0.30409 2.1953 0.91406h0.001953l11.453 11.455 11.453-11.455h0.001953c1.2157-1.2199 3.1749-1.2199 4.3906 0l0.001953 0.001954c1.2199 1.2157 1.2199 3.1749 0 4.3906l-11.453 11.453 11.252 11.355c1.2199 1.2157 1.2199 3.1769 0 4.3926-0.61582 0.61582-1.3946 0.95312-2.1465 0.95312s-1.5307-0.3373-2.1465-0.95312l-11.352-11.352-11.455 11.352c-0.61582 0.61582-1.3946 0.95312-2.1465 0.95312-0.75185 0-1.5307-0.3373-2.1465-0.95312-1.2199-1.2157-1.2199-3.1769 0-4.3926l11.354-11.354-11.455-11.455c-1.2199-1.2157-1.2199-3.1749 0-4.3906l0.001953-0.001954c0.60786-0.60997 1.4013-0.91406 2.1953-0.91406z" color="#000000" color-rendering="auto" dominant-baseline="auto" fill-rule="evenodd" image-rendering="auto" solid-color="#000000" stop-color="#000000" style="font-feature-settings:normal;font-variant-alternates:normal;font-variant-caps:normal;font-variant-east-asian:normal;font-variant-ligatures:normal;font-variant-numeric:normal;font-variant-position:normal;font-variation-settings:normal;inline-size:0;isolation:auto;mix-blend-mode:normal;shape-margin:0;shape-padding:0;text-decoration-color:#000000;text-decoration-line:none;text-decoration-style:solid;text-indent:0;text-orientation:mixed;text-transform:none;white-space:normal"/>
    </g>
   </g>
  </g>
 </switch>
</svg>
