<?xml version="1.0" encoding="UTF-8" standalone="no"?>
<svg
   xmlns:dc="http://purl.org/dc/elements/1.1/"
   xmlns:cc="http://creativecommons.org/ns#"
   xmlns:rdf="http://www.w3.org/1999/02/22-rdf-syntax-ns#"
   xmlns:svg="http://www.w3.org/2000/svg"
   xmlns="http://www.w3.org/2000/svg"
   id="svg10"
   version="1.1"
   viewBox="0 0 78 97.5">
  <metadata
     id="metadata16">
    <rdf:RDF>
      <cc:Work
         rdf:about="">
        <dc:format>image/svg+xml</dc:format>
        <dc:type
           rdf:resource="http://purl.org/dc/dcmitype/StillImage" />
        <dc:title></dc:title>
      </cc:Work>
    </rdf:RDF>
  </metadata>
  <defs
     id="defs14" />
  <g
     style="fill:#ff3c00;fill-opacity:1"
     id="g8"
     fill-rule="evenodd"
     fill="#c23616">
    <path
       style="fill:#ff3c00;fill-opacity:1"
       id="path2"
       d="M38.96 77.9A38.67 38.67 0 0 1 .33 39.27 38.67 38.67 0 0 1 38.96.64a38.67 38.67 0 0 1 38.62 38.63A38.67 38.67 0 0 1 38.96 77.9zm0-71.96A33.36 33.36 0 0 0 5.63 39.27 33.37 33.37 0 0 0 38.96 72.6a33.37 33.37 0 0 0 33.32-33.33A33.37 33.37 0 0 0 38.96 5.94z" />
    <path
       style="fill:#ff3c00;fill-opacity:1"
       id="path4"
       d="M28.82 52.05a2.65 2.65 0 0 1-1.87-4.52L47.2 27.26a2.65 2.65 0 1 1 3.75 3.75L30.7 51.28c-.52.52-1.2.77-1.88.77" />
    <path
       style="fill:#ff3c00;fill-opacity:1"
       id="path6"
       d="M49.09 52.05c-.68 0-1.36-.25-1.88-.77L26.95 31a2.65 2.65 0 1 1 3.75-3.75l20.26 20.27a2.65 2.65 0 0 1-1.87 4.52" />
  </g>
</svg>
