<?xml version="1.0" encoding="UTF-8" standalone="no"?>
<svg
   xmlns:dc="http://purl.org/dc/elements/1.1/"
   xmlns:cc="http://creativecommons.org/ns#"
   xmlns:rdf="http://www.w3.org/1999/02/22-rdf-syntax-ns#"
   xmlns:svg="http://www.w3.org/2000/svg"
   xmlns="http://www.w3.org/2000/svg"
   id="svg857"
   version="1.1"
   viewBox="0 0 92 92"
   height="92mm"
   width="92mm">
  <defs
     id="defs851" />
  <metadata
     id="metadata854">
    <rdf:RDF>
      <cc:Work
         rdf:about="">
        <dc:format>image/svg+xml</dc:format>
        <dc:type
           rdf:resource="http://purl.org/dc/dcmitype/StillImage" />
        <dc:title></dc:title>
      </cc:Work>
    </rdf:RDF>
  </metadata>
  <g
     id="layer1">
    <path
       style="color:#000000;font-style:normal;font-variant:normal;font-weight:normal;font-stretch:normal;font-size:medium;line-height:normal;font-family:sans-serif;font-variant-ligatures:normal;font-variant-position:normal;font-variant-caps:normal;font-variant-numeric:normal;font-variant-alternates:normal;font-variant-east-asian:normal;font-feature-settings:normal;font-variation-settings:normal;text-indent:0;text-align:start;text-decoration:none;text-decoration-line:none;text-decoration-style:solid;text-decoration-color:#000000;letter-spacing:normal;word-spacing:normal;text-transform:none;writing-mode:lr-tb;direction:ltr;text-orientation:mixed;dominant-baseline:auto;baseline-shift:baseline;text-anchor:start;white-space:normal;shape-padding:0;shape-margin:0;inline-size:0;clip-rule:nonzero;display:inline;overflow:visible;visibility:visible;opacity:1;isolation:auto;mix-blend-mode:normal;color-interpolation:sRGB;color-interpolation-filters:linearRGB;solid-color:#000000;solid-opacity:1;vector-effect:none;fill:#00b3ff;fill-opacity:1;fill-rule:nonzero;stroke-width:0.999999;color-rendering:auto;image-rendering:auto;shape-rendering:auto;text-rendering:auto;enable-background:accumulate;stop-color:#000000;stop-opacity:1"
       d="m 51.000002,43 c -2.737735,0 -5.000001,2.262267 -5.000001,5.000002 0,2.737735 2.262266,4.999997 5.000001,4.999997 2.462128,0 4.446501,-1.860948 4.839844,-4.2207 a 2,2 0 0 0 0.160138,-0.779297 2,2 0 0 0 -0.162103,-0.78711 C 55.441185,44.857011 53.459344,43 51.000002,43 Z m 0,3.999999 c 0.575974,0 0.999999,0.424029 0.999999,1.000003 C 52.000001,48.575975 51.575976,49 51.000002,49 50.424029,49 50,48.575975 50,48.000002 c 0,-0.575974 0.424029,-1.000003 1.000002,-1.000003 z"
       id="path896" />
    <path
       id="path856"
       style="color:#000000;font-style:normal;font-variant:normal;font-weight:normal;font-stretch:normal;font-size:medium;line-height:normal;font-family:sans-serif;font-variant-ligatures:normal;font-variant-position:normal;font-variant-caps:normal;font-variant-numeric:normal;font-variant-alternates:normal;font-variant-east-asian:normal;font-feature-settings:normal;font-variation-settings:normal;text-indent:0;text-align:start;text-decoration:none;text-decoration-line:none;text-decoration-style:solid;text-decoration-color:#000000;letter-spacing:normal;word-spacing:normal;text-transform:none;writing-mode:lr-tb;direction:ltr;text-orientation:mixed;dominant-baseline:auto;baseline-shift:baseline;text-anchor:start;white-space:normal;shape-padding:0;shape-margin:0;inline-size:0;clip-rule:nonzero;display:inline;overflow:visible;visibility:visible;isolation:auto;mix-blend-mode:normal;color-interpolation:sRGB;color-interpolation-filters:linearRGB;solid-color:#000000;solid-opacity:1;vector-effect:none;fill:#00b3ff;fill-opacity:1;fill-rule:nonzero;stroke-width:0.999999;color-rendering:auto;image-rendering:auto;shape-rendering:auto;text-rendering:auto;enable-background:accumulate;stop-color:#000000"
       d="m 59.363224,48.68757 c -1.236167,0.331237 -2.339486,1.142332 -3.006123,2.334141 -1.40657,2.361453 -0.564087,5.489696 1.854693,6.808604 l 8.609602,4.97235 c 0.0021,0.0014 0.0045,0.001 0.0064,0.0023 2.357484,1.433987 5.496265,0.59413 6.830544,-1.818108 1.361117,-2.381624 0.55313,-5.531754 -1.901624,-6.810187 l -8.5759,-4.953026 c -1.183298,-0.722173 -2.565728,-0.871491 -3.817685,-0.536027 z m 1.027188,3.833518 c 0.224542,-0.06017 0.475212,-0.02495 0.706447,0.116031 a 2.0002,2.0002 0 0 0 0.04116,0.02532 l 8.695211,5.020184 a 2.0002,2.0002 0 0 0 0.07604,0.04229 c 0.426357,0.222047 0.599576,0.726516 0.278815,1.282069 a 2.0002,2.0002 0 0 0 -0.02305,0.04256 c -0.259389,0.475684 -0.795874,0.619438 -1.258344,0.337172 a 2.0002,2.0002 0 0 0 -0.04305,-0.02495 L 60.168429,54.34158 a 2.0002,2.0002 0 0 0 -0.04256,-0.02306 c -0.475684,-0.259389 -0.619941,-0.797772 -0.337663,-1.260246 a 2.0002,2.0002 0 0 0 0.04834,-0.08375 c 0.129676,-0.237846 0.329272,-0.393559 0.553788,-0.453721 z" />
    <path
       style="color:#000000;font-style:normal;font-variant:normal;font-weight:normal;font-stretch:normal;font-size:medium;line-height:normal;font-family:sans-serif;font-variant-ligatures:normal;font-variant-position:normal;font-variant-caps:normal;font-variant-numeric:normal;font-variant-alternates:normal;font-variant-east-asian:normal;font-feature-settings:normal;font-variation-settings:normal;text-indent:0;text-align:start;text-decoration:none;text-decoration-line:none;text-decoration-style:solid;text-decoration-color:#000000;letter-spacing:normal;word-spacing:normal;text-transform:none;writing-mode:lr-tb;direction:ltr;text-orientation:mixed;dominant-baseline:auto;baseline-shift:baseline;text-anchor:start;white-space:normal;shape-padding:0;shape-margin:0;inline-size:0;clip-rule:nonzero;display:inline;overflow:visible;visibility:visible;opacity:1;isolation:auto;mix-blend-mode:normal;color-interpolation:sRGB;color-interpolation-filters:linearRGB;solid-color:#000000;solid-opacity:1;vector-effect:none;fill:#00b3ff;fill-opacity:1;fill-rule:nonzero;stroke-width:0.999999;color-rendering:auto;image-rendering:auto;shape-rendering:auto;text-rendering:auto;enable-background:accumulate;stop-color:#000000;stop-opacity:1"
       d="m 51.000002,80 c 17.649423,0 32,-14.350576 32,-31.999998 C 83.000002,30.350579 68.649425,16 51.000002,16 33.489054,16 19.263766,30.136794 19.04102,47.595706 a 2,2 0 0 0 0,0.0038 2,2 0 0 0 -0.04101,0.400403 2,2 0 0 0 0.03904,0.39453 C 19.256411,65.858003 33.485667,79.99991 50.999991,79.99991 Z m 0,-4 C 35.512337,76 23.000003,63.487663 23.000003,48.000002 c 0,-15.487662 12.512334,-28.000003 27.999999,-28.000003 15.487661,0 28,12.512341 28,28.000003 0,15.487661 -12.512339,27.999998 -28,27.999998 z"
       id="path901" />
    <path
       id="path854"
       style="color:#000000;font-style:normal;font-variant:normal;font-weight:normal;font-stretch:normal;font-size:medium;line-height:normal;font-family:sans-serif;font-variant-ligatures:normal;font-variant-position:normal;font-variant-caps:normal;font-variant-numeric:normal;font-variant-alternates:normal;font-variant-east-asian:normal;font-feature-settings:normal;font-variation-settings:normal;text-indent:0;text-align:start;text-decoration:none;text-decoration-line:none;text-decoration-style:solid;text-decoration-color:#000000;letter-spacing:normal;word-spacing:normal;text-transform:none;writing-mode:lr-tb;direction:ltr;text-orientation:mixed;dominant-baseline:auto;baseline-shift:baseline;text-anchor:start;white-space:normal;shape-padding:0;shape-margin:0;inline-size:0;clip-rule:nonzero;display:inline;overflow:visible;visibility:visible;isolation:auto;mix-blend-mode:normal;color-interpolation:sRGB;color-interpolation-filters:linearRGB;solid-color:#000000;solid-opacity:1;vector-effect:none;fill:#00b3ff;fill-opacity:1;fill-rule:nonzero;stroke-width:0.999999;color-rendering:auto;image-rendering:auto;shape-rendering:auto;text-rendering:auto;enable-background:accumulate;stop-color:#000000"
       d="m 31.516484,63.372705 c 1.251183,0.331842 2.623166,0.178545 3.793527,-0.56677 l 8.577495,-4.950626 c 2.420428,-1.319815 3.262552,-4.451376 1.851927,-6.813392 -1.341831,-2.393681 -4.464224,-3.226643 -6.813835,-1.797457 l -0.0068,0.0022 -8.611487,4.971844 -0.0053,0.0045 c -2.42061,1.324653 -3.262666,4.462844 -1.840747,6.824482 0.689159,1.181639 1.810522,1.994917 3.055075,2.32501 z M 32.50392,59.53662 c -0.221858,-0.06285 -0.432352,-0.226809 -0.592725,-0.504585 a 2.0002,2.0002 0 0 0 -0.02532,-0.04116 c -0.282255,-0.462471 -0.137991,-1.00085 0.337663,-1.260231 a 2.0002,2.0002 0 0 0 0.04256,-0.02305 l 8.695227,-5.020105 a 2.0002,2.0002 0 0 0 0.04116,-0.02532 c 0.46247,-0.282255 1.000849,-0.13799 1.26023,0.337663 a 2.0002,2.0002 0 0 0 0.04834,0.08372 c 0.282256,0.462471 0.13852,0.998963 -0.337171,1.258345 a 2.0002,2.0002 0 0 0 -0.04305,0.02494 l -8.695211,5.020181 a 2.0002,2.0002 0 0 0 -0.07465,0.04467 c -0.202734,0.129108 -0.43513,0.167886 -0.656988,0.105033 z" />
    <path
       id="path848"
       style="color:#000000;font-style:normal;font-variant:normal;font-weight:normal;font-stretch:normal;font-size:medium;line-height:normal;font-family:sans-serif;font-variant-ligatures:normal;font-variant-position:normal;font-variant-caps:normal;font-variant-numeric:normal;font-variant-alternates:normal;font-variant-east-asian:normal;font-feature-settings:normal;font-variation-settings:normal;text-indent:0;text-align:start;text-decoration:none;text-decoration-line:none;text-decoration-style:solid;text-decoration-color:#000000;letter-spacing:normal;word-spacing:normal;text-transform:none;writing-mode:lr-tb;direction:ltr;text-orientation:mixed;dominant-baseline:auto;baseline-shift:baseline;text-anchor:start;white-space:normal;shape-padding:0;shape-margin:0;inline-size:0;clip-rule:nonzero;display:inline;overflow:visible;visibility:visible;opacity:1;isolation:auto;mix-blend-mode:normal;color-interpolation:sRGB;color-interpolation-filters:linearRGB;solid-color:#000000;solid-opacity:1;vector-effect:none;fill:#00b3ff;fill-opacity:1;fill-rule:nonzero;stroke-width:0.999999;color-rendering:auto;image-rendering:auto;shape-rendering:auto;text-rendering:auto;enable-background:accumulate;stop-color:#000000;stop-opacity:1"
       d="m 51.000002,22 c -2.737735,0 -5.000001,2.262267 -5.000001,5.000001 V 37 c 0,2.737735 2.262266,5.000002 5.000001,5.000002 C 53.737733,42.000002 56,39.737735 56,37 V 27.000001 C 56,24.262267 53.737733,22 51.000002,22 Z m 0,3.999999 c 0.575974,0 0.999999,0.424029 0.999999,1.000002 V 37 c 0,0.575974 -0.424025,0.999999 -0.999999,0.999999 C 50.424029,37.999999 50,37.575974 50,37 v -9.999999 c 0,-0.575973 0.424029,-1.000002 1.000002,-1.000002 z" />
    <path
       style="color:#000000;font-style:normal;font-variant:normal;font-weight:normal;font-stretch:normal;font-size:medium;line-height:normal;font-family:sans-serif;font-variant-ligatures:normal;font-variant-position:normal;font-variant-caps:normal;font-variant-numeric:normal;font-variant-alternates:normal;font-variant-east-asian:normal;font-feature-settings:normal;font-variation-settings:normal;text-indent:0;text-align:start;text-decoration:none;text-decoration-line:none;text-decoration-style:solid;text-decoration-color:#000000;letter-spacing:normal;word-spacing:normal;text-transform:none;writing-mode:lr-tb;direction:ltr;text-orientation:mixed;dominant-baseline:auto;baseline-shift:baseline;text-anchor:start;white-space:normal;shape-padding:0;shape-margin:0;inline-size:0;clip-rule:nonzero;display:inline;overflow:visible;visibility:visible;opacity:1;isolation:auto;mix-blend-mode:normal;color-interpolation:sRGB;color-interpolation-filters:linearRGB;solid-color:#000000;solid-opacity:1;vector-effect:none;fill:#00b3ff;fill-opacity:1;fill-rule:nonzero;stroke-width:0.999999;color-rendering:auto;image-rendering:auto;shape-rendering:auto;text-rendering:auto;enable-background:accumulate;stop-color:#000000;stop-opacity:1"
       d="m 15.000002,19.999999 c -3.290019,0 -6.000001,2.709982 -6.000001,6 V 46 c 0,1.128261 -0.87174,2.000002 -2.000001,2.000002 H -2.999999 A 2,2 0 0 0 -5,49.999999 2,2 0 0 0 -2.999999,52.000001 H 7 c 3.290022,0 6,-2.709982 6,-6.000001 V 25.999999 c 0,-1.128257 0.871745,-1.999998 2.000002,-1.999998 H 26.000003 A 2,2 0 0 0 28,22 2,2 0 0 0 26.000003,19.999999 Z"
       id="path842" />
  </g>
</svg>
