<?xml version="1.0" encoding="UTF-8" standalone="no"?>
<svg
   xmlns:dc="http://purl.org/dc/elements/1.1/"
   xmlns:cc="http://creativecommons.org/ns#"
   xmlns:rdf="http://www.w3.org/1999/02/22-rdf-syntax-ns#"
   xmlns:svg="http://www.w3.org/2000/svg"
   xmlns="http://www.w3.org/2000/svg"
   version="1.1"
   viewBox="9 0 92 92"
   id="Layer_1">
  <metadata
     id="metadata15">
    <rdf:RDF>
      <cc:Work
         rdf:about="">
        <dc:format>image/svg+xml</dc:format>
        <dc:type
           rdf:resource="http://purl.org/dc/dcmitype/StillImage" />
        <dc:title></dc:title>
      </cc:Work>
    </rdf:RDF>
  </metadata>
  <defs
     id="defs13" />
  <style
     id="style2">.st1{fill:none;stroke:#0097e6;stroke-width:4;stroke-linecap:round;stroke-linejoin:round;stroke-miterlimit:10}</style>
  <path
     id="path896"
     d="M 60 43 C 57.262266 43 55 45.262266 55 48 C 55 50.737734 57.262266 53 60 53 C 62.462129 53 64.446501 51.139048 64.839844 48.779297 A 2 2 0 0 0 65 48 A 2 2 0 0 0 64.837891 47.212891 C 64.441186 44.857011 62.459342 43 60 43 z M 60 47 C 60.575974 47 61 47.424026 61 48 C 61 48.575974 60.575974 49 60 49 C 59.424026 49 59 48.575974 59 48 C 59 47.424026 59.424026 47 60 47 z "
     style="color:#000000;font-style:normal;font-variant:normal;font-weight:normal;font-stretch:normal;font-size:medium;line-height:normal;font-family:sans-serif;font-variant-ligatures:normal;font-variant-position:normal;font-variant-caps:normal;font-variant-numeric:normal;font-variant-alternates:normal;font-variant-east-asian:normal;font-feature-settings:normal;font-variation-settings:normal;text-indent:0;text-align:start;text-decoration:none;text-decoration-line:none;text-decoration-style:solid;text-decoration-color:#000000;letter-spacing:normal;word-spacing:normal;text-transform:none;writing-mode:lr-tb;direction:ltr;text-orientation:mixed;dominant-baseline:auto;baseline-shift:baseline;text-anchor:start;white-space:normal;shape-padding:0;shape-margin:0;inline-size:0;clip-rule:nonzero;display:inline;overflow:visible;visibility:visible;isolation:auto;mix-blend-mode:normal;color-interpolation:sRGB;color-interpolation-filters:linearRGB;solid-color:#000000;solid-opacity:1;vector-effect:none;fill:#00c3ff;fill-opacity:1;fill-rule:nonzero;stroke:none;stroke-width:4;stroke-linecap:round;stroke-linejoin:round;stroke-miterlimit:10;stroke-dasharray:none;stroke-dashoffset:0;stroke-opacity:1;color-rendering:auto;image-rendering:auto;shape-rendering:auto;text-rendering:auto;enable-background:accumulate;stop-color:#000000;stop-opacity:1;opacity:1" />
  <path
     d="m 68.363222,48.68757 c -1.236165,0.331229 -2.339487,1.142329 -3.006124,2.334139 -1.406567,2.361453 -0.564085,5.489697 1.854696,6.808607 l 8.6096,4.97235 c 0.0021,0.0014 0.0046,10e-4 0.0066,0.0023 2.357484,1.433986 5.496264,0.594132 6.830545,-1.818106 1.361114,-2.381627 0.553128,-5.531756 -1.901624,-6.810188 l -8.576074,-4.953028 c -1.1833,-0.722171 -2.565728,-0.871491 -3.817688,-0.536028 z m 1.02719,3.833517 c 0.224526,-0.06017 0.475209,-0.0251 0.706446,0.116035 a 2.0002,2.0002 0 0 0 0.04117,0.02537 l 8.69521,5.020182 a 2.0002,2.0002 0 0 0 0.07604,0.04231 c 0.426357,0.222047 0.599576,0.726513 0.278824,1.282069 a 2.0002,2.0002 0 0 0 -0.02297,0.04255 c -0.259381,0.475683 -0.795873,0.619437 -1.258345,0.337172 a 2.0002,2.0002 0 0 0 -0.04306,-0.02485 l -8.69521,-5.020183 a 2.0002,2.0002 0 0 0 -0.04256,-0.02298 c -0.475682,-0.25939 -0.61994,-0.797771 -0.337678,-1.260242 a 2.0002,2.0002 0 0 0 0.04834,-0.08374 c 0.129696,-0.237862 0.32926,-0.39356 0.553788,-0.453723 z"
     style="color:#000000;font-style:normal;font-variant:normal;font-weight:normal;font-stretch:normal;font-size:medium;line-height:normal;font-family:sans-serif;font-variant-ligatures:normal;font-variant-position:normal;font-variant-caps:normal;font-variant-numeric:normal;font-variant-alternates:normal;font-variant-east-asian:normal;font-feature-settings:normal;font-variation-settings:normal;text-indent:0;text-align:start;text-decoration:none;text-decoration-line:none;text-decoration-style:solid;text-decoration-color:#000000;letter-spacing:normal;word-spacing:normal;text-transform:none;writing-mode:lr-tb;direction:ltr;text-orientation:mixed;dominant-baseline:auto;baseline-shift:baseline;text-anchor:start;white-space:normal;shape-padding:0;shape-margin:0;inline-size:0;clip-rule:nonzero;display:inline;overflow:visible;visibility:visible;isolation:auto;mix-blend-mode:normal;color-interpolation:sRGB;color-interpolation-filters:linearRGB;solid-color:#000000;solid-opacity:1;vector-effect:none;fill:#00c3ff;fill-opacity:1;fill-rule:nonzero;stroke:none;stroke-width:4;stroke-linecap:round;stroke-linejoin:round;stroke-miterlimit:10;stroke-dasharray:none;stroke-dashoffset:0;stroke-opacity:1;color-rendering:auto;image-rendering:auto;shape-rendering:auto;text-rendering:auto;enable-background:accumulate;stop-color:#000000"
     id="path856" />
  <path
     transform="scale(-1)"
     id="path901"
     d="M -60 -80 C -77.649423 -80 -92 -65.649423 -92 -48 C -92 -30.350577 -77.649423 -16 -60 -16 C -42.489055 -16 -28.263764 -30.136793 -28.041016 -47.595703 A 2 2 0 0 0 -28.041016 -47.599609 A 2 2 0 0 0 -28 -48 A 2 2 0 0 0 -28.039062 -48.394531 C -28.256436 -65.858095 -42.485678 -80 -60 -80 z M -60 -76 C -44.512338 -76 -32 -63.487662 -32 -48 C -32 -32.512338 -44.512338 -20 -60 -20 C -75.487662 -20 -88 -32.512338 -88 -48 C -88 -63.487662 -75.487662 -76 -60 -76 z "
     style="color:#000000;font-style:normal;font-variant:normal;font-weight:normal;font-stretch:normal;font-size:medium;line-height:normal;font-family:sans-serif;font-variant-ligatures:normal;font-variant-position:normal;font-variant-caps:normal;font-variant-numeric:normal;font-variant-alternates:normal;font-variant-east-asian:normal;font-feature-settings:normal;font-variation-settings:normal;text-indent:0;text-align:start;text-decoration:none;text-decoration-line:none;text-decoration-style:solid;text-decoration-color:#000000;letter-spacing:normal;word-spacing:normal;text-transform:none;writing-mode:lr-tb;direction:ltr;text-orientation:mixed;dominant-baseline:auto;baseline-shift:baseline;text-anchor:start;white-space:normal;shape-padding:0;shape-margin:0;inline-size:0;clip-rule:nonzero;display:inline;overflow:visible;visibility:visible;isolation:auto;mix-blend-mode:normal;color-interpolation:sRGB;color-interpolation-filters:linearRGB;solid-color:#000000;solid-opacity:1;vector-effect:none;fill:#00c3ff;fill-opacity:1;fill-rule:nonzero;stroke:none;stroke-width:4;stroke-linecap:round;stroke-linejoin:round;stroke-miterlimit:10;stroke-dasharray:none;stroke-dashoffset:0;stroke-opacity:1;color-rendering:auto;image-rendering:auto;shape-rendering:auto;text-rendering:auto;enable-background:accumulate;stop-color:#000000;stop-opacity:1;opacity:1" />
  <path
     d="m 40.516481,63.372704 c 1.251183,0.331837 2.623168,0.178531 3.79353,-0.566772 l 8.577494,-4.950623 c 2.420428,-1.319815 3.262551,-4.451378 1.851928,-6.813395 -1.341831,-2.39368 -4.464226,-3.22664 -6.813834,-1.797456 l -0.0067,0.0022 -8.611488,4.971845 -0.0053,0.0047 c -2.420609,1.324649 -3.262667,4.46284 -1.840746,6.824479 0.68916,1.18164 1.810523,1.994918 3.055074,2.325012 z m 0.987436,-3.836083 c -0.221853,-0.06286 -0.432349,-0.226808 -0.592724,-0.504586 a 2.0002,2.0002 0 0 0 -0.02538,-0.04117 c -0.282263,-0.462472 -0.138004,-1.000851 0.337679,-1.260232 a 2.0002,2.0002 0 0 0 0.04256,-0.02296 l 8.695209,-5.020189 a 2.0002,2.0002 0 0 0 0.04117,-0.02538 c 0.462472,-0.282263 1.000851,-0.138005 1.260233,0.337678 a 2.0002,2.0002 0 0 0 0.04834,0.08373 c 0.282262,0.462471 0.13851,0.998964 -0.337172,1.258344 a 2.0002,2.0002 0 0 0 -0.04306,0.02486 l -8.69521,5.020183 a 2.0002,2.0002 0 0 0 -0.07466,0.04469 c -0.202737,0.129106 -0.435131,0.167868 -0.656989,0.105022 z"
     style="color:#000000;font-style:normal;font-variant:normal;font-weight:normal;font-stretch:normal;font-size:medium;line-height:normal;font-family:sans-serif;font-variant-ligatures:normal;font-variant-position:normal;font-variant-caps:normal;font-variant-numeric:normal;font-variant-alternates:normal;font-variant-east-asian:normal;font-feature-settings:normal;font-variation-settings:normal;text-indent:0;text-align:start;text-decoration:none;text-decoration-line:none;text-decoration-style:solid;text-decoration-color:#000000;letter-spacing:normal;word-spacing:normal;text-transform:none;writing-mode:lr-tb;direction:ltr;text-orientation:mixed;dominant-baseline:auto;baseline-shift:baseline;text-anchor:start;white-space:normal;shape-padding:0;shape-margin:0;inline-size:0;clip-rule:nonzero;display:inline;overflow:visible;visibility:visible;isolation:auto;mix-blend-mode:normal;color-interpolation:sRGB;color-interpolation-filters:linearRGB;solid-color:#000000;solid-opacity:1;vector-effect:none;fill:#00c3ff;fill-opacity:1;fill-rule:nonzero;stroke:none;stroke-width:4;stroke-linecap:round;stroke-linejoin:round;stroke-miterlimit:10;stroke-dasharray:none;stroke-dashoffset:0;stroke-opacity:1;color-rendering:auto;image-rendering:auto;shape-rendering:auto;text-rendering:auto;enable-background:accumulate;stop-color:#000000"
     id="path854" />
  <path
     transform="translate(9)"
     d="M 51 22 C 48.262266 22 46 24.262266 46 27 L 46 37 C 46 39.737734 48.262266 42 51 42 C 53.737734 42 56 39.737734 56 37 L 56 27 C 56 24.262266 53.737734 22 51 22 z M 51 26 C 51.575974 26 52 26.424026 52 27 L 52 37 C 52 37.575974 51.575974 38 51 38 C 50.424026 38 50 37.575974 50 37 L 50 27 C 50 26.424026 50.424026 26 51 26 z "
     style="color:#000000;font-style:normal;font-variant:normal;font-weight:normal;font-stretch:normal;font-size:medium;line-height:normal;font-family:sans-serif;font-variant-ligatures:normal;font-variant-position:normal;font-variant-caps:normal;font-variant-numeric:normal;font-variant-alternates:normal;font-variant-east-asian:normal;font-feature-settings:normal;font-variation-settings:normal;text-indent:0;text-align:start;text-decoration:none;text-decoration-line:none;text-decoration-style:solid;text-decoration-color:#000000;letter-spacing:normal;word-spacing:normal;text-transform:none;writing-mode:lr-tb;direction:ltr;text-orientation:mixed;dominant-baseline:auto;baseline-shift:baseline;text-anchor:start;white-space:normal;shape-padding:0;shape-margin:0;inline-size:0;clip-rule:nonzero;display:inline;overflow:visible;visibility:visible;isolation:auto;mix-blend-mode:normal;color-interpolation:sRGB;color-interpolation-filters:linearRGB;solid-color:#000000;solid-opacity:1;vector-effect:none;fill:#00c3ff;fill-opacity:1;fill-rule:nonzero;stroke:none;stroke-width:4;stroke-linecap:round;stroke-linejoin:round;stroke-miterlimit:10;stroke-dasharray:none;stroke-dashoffset:0;stroke-opacity:1;color-rendering:auto;image-rendering:auto;shape-rendering:auto;text-rendering:auto;enable-background:accumulate;stop-color:#000000;stop-opacity:1;opacity:1"
     id="path848" />
  <path
     id="path842"
     d="m 24,20 c -3.290019,0 -6,2.709981 -6,6 v 20 c 0,1.128259 -0.871741,2 -2,2 H 6 a 2,2 0 0 0 -2,2 2,2 0 0 0 2,2 h 10 c 3.290019,0 6,-2.709981 6,-6 V 26 c 0,-1.128259 0.871741,-2 2,-2 h 11 a 2,2 0 0 0 2,-2 2,2 0 0 0 -2,-2 z"
     style="color:#000000;font-style:normal;font-variant:normal;font-weight:normal;font-stretch:normal;font-size:medium;line-height:normal;font-family:sans-serif;font-variant-ligatures:normal;font-variant-position:normal;font-variant-caps:normal;font-variant-numeric:normal;font-variant-alternates:normal;font-variant-east-asian:normal;font-feature-settings:normal;font-variation-settings:normal;text-indent:0;text-align:start;text-decoration:none;text-decoration-line:none;text-decoration-style:solid;text-decoration-color:#000000;letter-spacing:normal;word-spacing:normal;text-transform:none;writing-mode:lr-tb;direction:ltr;text-orientation:mixed;dominant-baseline:auto;baseline-shift:baseline;text-anchor:start;white-space:normal;shape-padding:0;shape-margin:0;inline-size:0;clip-rule:nonzero;display:inline;overflow:visible;visibility:visible;isolation:auto;mix-blend-mode:normal;color-interpolation:sRGB;color-interpolation-filters:linearRGB;solid-color:#000000;solid-opacity:1;vector-effect:none;fill:#00c3ff;fill-opacity:1;fill-rule:nonzero;stroke:none;stroke-width:4;stroke-linecap:round;stroke-linejoin:round;stroke-miterlimit:10;stroke-dasharray:none;stroke-dashoffset:0;stroke-opacity:1;color-rendering:auto;image-rendering:auto;shape-rendering:auto;text-rendering:auto;enable-background:accumulate;stop-color:#000000;stop-opacity:1;opacity:1" />
</svg>
