<?xml version="1.0" encoding="UTF-8" standalone="no"?>
<svg
   xmlns:dc="http://purl.org/dc/elements/1.1/"
   xmlns:cc="http://creativecommons.org/ns#"
   xmlns:rdf="http://www.w3.org/1999/02/22-rdf-syntax-ns#"
   xmlns:svg="http://www.w3.org/2000/svg"
   xmlns="http://www.w3.org/2000/svg"
   xmlns:sodipodi="http://sodipodi.sourceforge.net/DTD/sodipodi-0.dtd"
   xmlns:inkscape="http://www.inkscape.org/namespaces/inkscape"
   inkscape:version="1.0beta2 (3287d1b, 2019-12-24)"
   sodipodi:docname="heat-bed3.svg"
   version="1.1"
   viewBox="0 0 104 104"
   id="Layer_1">
  <metadata
     id="metadata15">
    <rdf:RDF>
      <cc:Work
         rdf:about="">
        <dc:format>image/svg+xml</dc:format>
        <dc:type
           rdf:resource="http://purl.org/dc/dcmitype/StillImage" />
        <dc:title></dc:title>
      </cc:Work>
    </rdf:RDF>
  </metadata>
  <defs
     id="defs13" />
  <sodipodi:namedview
     inkscape:current-layer="Layer_1"
     inkscape:window-maximized="1"
     inkscape:window-y="-3"
     inkscape:window-x="-8"
     inkscape:cy="52"
     inkscape:cx="-17.034483"
     inkscape:zoom="2.7884615"
     showgrid="false"
     id="namedview11"
     inkscape:window-height="1015"
     inkscape:window-width="1920"
     inkscape:pageshadow="2"
     inkscape:pageopacity="0"
     guidetolerance="10"
     gridtolerance="10"
     objecttolerance="10"
     borderopacity="1"
     inkscape:document-rotation="0"
     bordercolor="#666666"
     pagecolor="#ffffff" />
  <style
     id="style2">.st0{fill:none;stroke:#e1b12c;stroke-width:4;stroke-miterlimit:10}.st0,.st1{stroke-linecap:round}.st1,.st2{fill:none;stroke:#e1b12c;stroke-width:4;stroke-linejoin:round;stroke-miterlimit:10}</style>
  <path
     id="path842"
     d="M 14.199219 70.75 C 10.663633 70.75 7.75 73.663633 7.75 77.199219 L 7.75 78.800781 C 7.75 82.339912 10.660088 85.25 14.199219 85.25 L 89.800781 85.25 C 93.339912 85.25 96.25 82.339912 96.25 78.800781 L 96.25 77.199219 C 96.25 73.660088 93.339912 70.75 89.800781 70.75 L 14.199219 70.75 z M 14.199219 75.25 L 20.359375 75.25 L 17.609375 80.75 L 14.199219 80.75 C 13.138349 80.75 12.25 79.861651 12.25 78.800781 L 12.25 77.199219 C 12.25 76.095613 13.095613 75.25 14.199219 75.25 z M 25.390625 75.25 L 30.359375 75.25 L 27.609375 80.75 L 22.640625 80.75 L 25.390625 75.25 z M 35.390625 75.25 L 40.359375 75.25 L 37.609375 80.75 L 32.640625 80.75 L 35.390625 75.25 z M 45.390625 75.25 L 50.359375 75.25 L 47.609375 80.75 L 42.640625 80.75 L 45.390625 75.25 z M 55.390625 75.25 L 60.359375 75.25 L 57.609375 80.75 L 52.640625 80.75 L 55.390625 75.25 z M 65.390625 75.25 L 70.359375 75.25 L 67.609375 80.75 L 62.640625 80.75 L 65.390625 75.25 z M 75.390625 75.25 L 80.359375 75.25 L 77.609375 80.75 L 72.640625 80.75 L 75.390625 75.25 z M 85.390625 75.25 L 89.800781 75.25 C 90.861651 75.25 91.75 76.138349 91.75 77.199219 L 91.75 78.800781 C 91.75 79.861651 90.861651 80.75 89.800781 80.75 L 82.640625 80.75 L 85.390625 75.25 z "
     style="color:#000000;font-style:normal;font-variant:normal;font-weight:normal;font-stretch:normal;font-size:medium;line-height:normal;font-family:sans-serif;font-variant-ligatures:normal;font-variant-position:normal;font-variant-caps:normal;font-variant-numeric:normal;font-variant-alternates:normal;font-variant-east-asian:normal;font-feature-settings:normal;font-variation-settings:normal;text-indent:0;text-align:start;text-decoration:none;text-decoration-line:none;text-decoration-style:solid;text-decoration-color:#000000;letter-spacing:normal;word-spacing:normal;text-transform:none;writing-mode:lr-tb;direction:ltr;text-orientation:mixed;dominant-baseline:auto;baseline-shift:baseline;text-anchor:start;white-space:normal;shape-padding:0;shape-margin:0;inline-size:0;clip-rule:nonzero;display:inline;overflow:visible;visibility:visible;isolation:auto;mix-blend-mode:normal;color-interpolation:sRGB;color-interpolation-filters:linearRGB;solid-color:#000000;solid-opacity:1;vector-effect:none;fill:#ff3c00;fill-opacity:1;fill-rule:nonzero;stroke:none;stroke-width:4.5;stroke-linecap:butt;stroke-linejoin:miter;stroke-miterlimit:10;stroke-dasharray:none;stroke-dashoffset:0;stroke-opacity:1;paint-order:stroke fill markers;color-rendering:auto;image-rendering:auto;shape-rendering:auto;text-rendering:auto;enable-background:accumulate;stop-color:#000000;stop-opacity:1;opacity:1" />
  <path
     id="path846"
     d="M 16 86 L 16 92 A 2.0002 2.0002 0 0 0 18 94 L 26 94 A 2.0002 2.0002 0 0 0 28 92 L 28 86 L 24 86 L 24 90 L 20 90 L 20 86 L 16 86 z M 76 86 L 76 92 A 2.0002 2.0002 0 0 0 78 94 L 86 94 A 2.0002 2.0002 0 0 0 88 92 L 88 86 L 84 86 L 84 90 L 80 90 L 80 86 L 76 86 z "
     style="color:#000000;font-style:normal;font-variant:normal;font-weight:normal;font-stretch:normal;font-size:medium;line-height:normal;font-family:sans-serif;font-variant-ligatures:normal;font-variant-position:normal;font-variant-caps:normal;font-variant-numeric:normal;font-variant-alternates:normal;font-variant-east-asian:normal;font-feature-settings:normal;font-variation-settings:normal;text-indent:0;text-align:start;text-decoration:none;text-decoration-line:none;text-decoration-style:solid;text-decoration-color:#000000;letter-spacing:normal;word-spacing:normal;text-transform:none;writing-mode:lr-tb;direction:ltr;text-orientation:mixed;dominant-baseline:auto;baseline-shift:baseline;text-anchor:start;white-space:normal;shape-padding:0;shape-margin:0;inline-size:0;clip-rule:nonzero;display:inline;overflow:visible;visibility:visible;isolation:auto;mix-blend-mode:normal;color-interpolation:sRGB;color-interpolation-filters:linearRGB;solid-color:#000000;solid-opacity:1;vector-effect:none;fill:#ff3c00;fill-opacity:1;fill-rule:nonzero;stroke:none;stroke-width:4;stroke-linecap:butt;stroke-linejoin:round;stroke-miterlimit:10;stroke-dasharray:none;stroke-dashoffset:0;stroke-opacity:1;paint-order:stroke fill markers;color-rendering:auto;image-rendering:auto;shape-rendering:auto;text-rendering:auto;enable-background:accumulate;stop-color:#000000;stop-opacity:1;opacity:1" />
  <path
     id="path850"
     d="M 19.994141 13.400391 A 2.5 2.5 0 0 0 17.625 15.121094 C 17.625 15.121094 16.607645 18.219678 15.589844 21.896484 C 14.572043 25.573291 13.5 29.608869 13.5 32.599609 C 13.5 36.432943 15.927959 39.472304 17.931641 42.427734 C 19.935322 45.383164 21.5 48.28967 21.5 49.300781 C 21.5 50.810041 20.572043 55.121729 19.589844 58.669922 C 18.607645 62.218115 17.625 65.220703 17.625 65.220703 A 2.5 2.5 0 0 0 19.220703 68.375 A 2.5 2.5 0 0 0 22.375 66.779297 C 22.375 66.779297 23.392355 63.680713 24.410156 60.003906 C 25.427957 56.327099 26.5 52.291522 26.5 49.300781 C 26.5 45.511892 24.064678 42.567617 22.068359 39.623047 C 20.072041 36.678477 18.5 33.766276 18.5 32.599609 C 18.5 31.09035 19.427957 26.776709 20.410156 23.228516 C 21.392355 19.680322 22.375 16.679687 22.375 16.679688 A 2.5 2.5 0 0 0 20.779297 13.525391 A 2.5 2.5 0 0 0 19.994141 13.400391 z M 35.994141 13.400391 A 2.5 2.5 0 0 0 33.625 15.121094 C 33.625 15.121094 32.607645 18.219678 31.589844 21.896484 C 30.572043 25.573291 29.5 29.608869 29.5 32.599609 C 29.5 36.432943 31.927959 39.472304 33.931641 42.427734 C 35.935322 45.383164 37.5 48.28967 37.5 49.300781 C 37.5 50.810041 36.572043 55.121729 35.589844 58.669922 C 34.607645 62.218115 33.625 65.220703 33.625 65.220703 A 2.5 2.5 0 0 0 35.220703 68.375 A 2.5 2.5 0 0 0 38.375 66.779297 C 38.375 66.779297 39.392355 63.680713 40.410156 60.003906 C 41.427957 56.327099 42.5 52.291522 42.5 49.300781 C 42.5 45.511892 40.064678 42.567617 38.068359 39.623047 C 36.072041 36.678477 34.5 33.766276 34.5 32.599609 C 34.5 31.09035 35.427957 26.776709 36.410156 23.228516 C 37.392355 19.680322 38.375 16.679687 38.375 16.679688 A 2.5 2.5 0 0 0 36.779297 13.525391 A 2.5 2.5 0 0 0 35.994141 13.400391 z M 51.994141 13.400391 A 2.5 2.5 0 0 0 49.625 15.121094 C 49.625 15.121094 48.607645 18.219678 47.589844 21.896484 C 46.572043 25.573291 45.5 29.608869 45.5 32.599609 C 45.5 36.432943 47.927959 39.472304 49.931641 42.427734 C 51.935322 45.383164 53.5 48.28967 53.5 49.300781 C 53.5 50.810041 52.572043 55.121729 51.589844 58.669922 C 50.607645 62.218115 49.625 65.220703 49.625 65.220703 A 2.5 2.5 0 0 0 51.220703 68.375 A 2.5 2.5 0 0 0 54.375 66.779297 C 54.375 66.779297 55.392355 63.680713 56.410156 60.003906 C 57.427957 56.327099 58.5 52.291522 58.5 49.300781 C 58.5 45.511892 56.064678 42.567617 54.068359 39.623047 C 52.072041 36.678477 50.5 33.766276 50.5 32.599609 C 50.5 31.09035 51.427957 26.776709 52.410156 23.228516 C 53.392355 19.680322 54.375 16.679687 54.375 16.679688 A 2.5 2.5 0 0 0 52.779297 13.525391 A 2.5 2.5 0 0 0 51.994141 13.400391 z M 67.994141 13.400391 A 2.5 2.5 0 0 0 65.625 15.121094 C 65.625 15.121094 64.607645 18.219678 63.589844 21.896484 C 62.572043 25.573291 61.5 29.608869 61.5 32.599609 C 61.5 36.432943 63.927959 39.472304 65.931641 42.427734 C 67.935322 45.383164 69.5 48.28967 69.5 49.300781 C 69.5 50.810041 68.572043 55.121729 67.589844 58.669922 C 66.607645 62.218115 65.625 65.220703 65.625 65.220703 A 2.5 2.5 0 0 0 67.220703 68.375 A 2.5 2.5 0 0 0 70.375 66.779297 C 70.375 66.779297 71.392355 63.680713 72.410156 60.003906 C 73.427957 56.327099 74.5 52.291522 74.5 49.300781 C 74.5 45.511892 72.064678 42.567617 70.068359 39.623047 C 68.072041 36.678477 66.5 33.766276 66.5 32.599609 C 66.5 31.09035 67.427957 26.776709 68.410156 23.228516 C 69.392355 19.680322 70.375 16.679687 70.375 16.679688 A 2.5 2.5 0 0 0 68.779297 13.525391 A 2.5 2.5 0 0 0 67.994141 13.400391 z M 83.994141 13.400391 A 2.5 2.5 0 0 0 81.625 15.121094 C 81.625 15.121094 80.607645 18.219678 79.589844 21.896484 C 78.572043 25.573291 77.5 29.608869 77.5 32.599609 C 77.5 36.432943 79.927959 39.472304 81.931641 42.427734 C 83.935322 45.383164 85.5 48.28967 85.5 49.300781 C 85.5 50.810041 84.572043 55.121729 83.589844 58.669922 C 82.607645 62.218115 81.625 65.220703 81.625 65.220703 A 2.5 2.5 0 0 0 83.220703 68.375 A 2.5 2.5 0 0 0 86.375 66.779297 C 86.375 66.779297 87.392355 63.680713 88.410156 60.003906 C 89.427957 56.327099 90.5 52.291522 90.5 49.300781 C 90.5 45.511892 88.064678 42.567617 86.068359 39.623047 C 84.072041 36.678477 82.5 33.766276 82.5 32.599609 C 82.5 31.09035 83.427957 26.776709 84.410156 23.228516 C 85.392355 19.680322 86.375 16.679687 86.375 16.679688 A 2.5 2.5 0 0 0 84.779297 13.525391 A 2.5 2.5 0 0 0 83.994141 13.400391 z "
     style="color:#000000;font-style:normal;font-variant:normal;font-weight:normal;font-stretch:normal;font-size:medium;line-height:normal;font-family:sans-serif;font-variant-ligatures:normal;font-variant-position:normal;font-variant-caps:normal;font-variant-numeric:normal;font-variant-alternates:normal;font-variant-east-asian:normal;font-feature-settings:normal;font-variation-settings:normal;text-indent:0;text-align:start;text-decoration:none;text-decoration-line:none;text-decoration-style:solid;text-decoration-color:#000000;letter-spacing:normal;word-spacing:normal;text-transform:none;writing-mode:lr-tb;direction:ltr;text-orientation:mixed;dominant-baseline:auto;baseline-shift:baseline;text-anchor:start;white-space:normal;shape-padding:0;shape-margin:0;inline-size:0;clip-rule:nonzero;display:inline;overflow:visible;visibility:visible;isolation:auto;mix-blend-mode:normal;color-interpolation:sRGB;color-interpolation-filters:linearRGB;solid-color:#000000;solid-opacity:1;vector-effect:none;fill:#ff3c00;fill-opacity:1;fill-rule:evenodd;stroke:none;stroke-width:5;stroke-linecap:round;stroke-linejoin:round;stroke-miterlimit:10;stroke-dasharray:none;stroke-dashoffset:0;stroke-opacity:1;paint-order:normal;color-rendering:auto;image-rendering:auto;shape-rendering:auto;text-rendering:auto;enable-background:accumulate;stop-color:#000000;stop-opacity:1;opacity:1" />
</svg>
