<?xml version="1.0" encoding="UTF-8" standalone="no"?>
<svg
   xmlns:dc="http://purl.org/dc/elements/1.1/"
   xmlns:cc="http://creativecommons.org/ns#"
   xmlns:rdf="http://www.w3.org/1999/02/22-rdf-syntax-ns#"
   xmlns:svg="http://www.w3.org/2000/svg"
   xmlns="http://www.w3.org/2000/svg"
   id="svg12"
   version="1.1"
   viewBox="0 0 100 100">
  <metadata
     id="metadata18">
    <rdf:RDF>
      <cc:Work
         rdf:about="">
        <dc:format>image/svg+xml</dc:format>
        <dc:type
           rdf:resource="http://purl.org/dc/dcmitype/StillImage" />
        <dc:title></dc:title>
      </cc:Work>
    </rdf:RDF>
  </metadata>
  <defs
     id="defs16" />
  <switch
     id="switch10">
    <g
       style="fill:#ff3c00;fill-opacity:1"
       id="g8">
      <g
         style="fill:#ff3c00;fill-opacity:1"
         id="g6"
         fill="#e1b12c">
        <path
           d="M 59.5,10.8 C 58.574086,9.3619359 56.996642,7.1717705 55.103254,8.4427911 c -2.057291,1.5604339 -0.03741,4.1310439 0.02289,6.1081119 0.426178,4.833658 -3.673306,8.501954 -4.164535,13.184117 -0.921832,4.40699 0.429984,9.327971 3.755582,12.411855 6.739343,0.967526 0.60385,-7.275525 2.600976,-10.792969 1.414077,-4.808611 4.796914,-9.471944 3.5264,-14.736637 C 60.59152,13.286905 60.136566,11.995274 59.5,10.8 Z m 15.5,0 C 74.082528,9.4833159 72.829614,7.303093 70.89151,8.2314924 c -2.033916,0.9538488 -1.04265,3.4335086 -0.538432,5.0162036 1.507922,4.931625 -2.744539,8.915356 -3.675477,13.480436 -1.288126,4.701585 -0.09217,10.166043 3.539587,13.518743 6.739343,0.967526 0.60385,-7.275525 2.600976,-10.792969 1.455943,-4.893302 4.903935,-9.677919 3.500934,-15.036274 C 76.055222,13.15698 75.609511,11.934618 75,10.8 Z M 91.5,13 C 90.615823,10.952475 89.271657,7.6999471 86.542194,8.3079102 84.562993,9.0737766 85.169899,11.506161 85.8,13 c 1.452492,4.239962 -1.578089,7.982356 -2.999828,11.740005 -2.066802,5.153872 -1.297619,11.651177 2.917016,15.50687 6.739343,0.967526 0.60385,-7.275525 2.600976,-10.792969 1.44331,-4.900028 4.913803,-9.667293 3.551931,-15.031455 C 91.772682,13.942049 91.649071,13.466957 91.5,13 Z M 41.3,61.7 c -0.0328,-15.563207 0.06586,-31.129853 -0.0498,-46.690894 C 40.899023,7.5837559 33.614143,1.4036763 26.226388,2.6207128 19.411396,3.3716807 14.112091,10.016073 14.7,16.813277 c 0,14.962241 0,29.924482 0,44.886723 -1.152423,2.121158 -3.360245,3.727859 -4.349894,6.06974 -4.8632788,8.663008 -1.8943837,20.605414 6.459319,25.982666 8.110405,5.737638 20.29677,4.02652 26.513436,-3.722818 C 49.872665,82.559699 49.437872,70.261472 42.376899,63.272779 42.012795,62.759822 41.179783,62.463819 41.3,61.7 Z M 23.6,92 C 15.17311,89.809259 10.307329,79.518379 13.887458,71.598279 14.96923,68.753775 17.195303,66.605954 19.45,64.6875 19.7959,59.209141 19.503041,53.650526 19.6,48.14089 19.624353,37.253979 19.551082,26.364868 19.637012,15.479346 19.856596,9.8110291 26.354846,5.4182918 31.572559,8.1397461 35.604997,9.8191076 36.878517,14.340428 36.5,18.333192 c 0,15.222269 0,30.444539 0,45.666808 3.385118,3.602889 7.267901,8.088081 6.794592,13.629941 C 43.28169,85.8247 35.769803,92.986845 27.583734,92.609324 26.236766,92.58185 24.893595,92.376408 23.6,92 Z"
           style="fill:#ff4c00;fill-opacity:1"
           id="path2" />
        <path
           id="path4"
           style="fill:#ff4c00;fill-opacity:1"
           d="m 31.5,67.7 c -0.0123,-14.223187 0.0246,-28.4476 -0.01846,-42.67002 C 31.341219,22.108592 27.305402,20.692856 25.35,22.85 c -1.611074,1.655049 -0.885747,4.084667 -1.05,6.15123 0,12.89959 0,25.79918 0,38.69877 -5.144671,1.755966 -8.110237,7.924852 -6.268436,13.039422 1.588563,5.198801 7.658252,8.36244 12.829745,6.687113 5.247484,-1.419497 8.605884,-7.38363 7.098785,-12.606628 C 37.133476,71.578418 34.646258,68.837048 31.5,67.7 Z" />
      </g>
    </g>
  </switch>
</svg>
