<?xml version="1.0" encoding="UTF-8" standalone="no"?>
<svg
   xmlns:dc="http://purl.org/dc/elements/1.1/"
   xmlns:cc="http://creativecommons.org/ns#"
   xmlns:rdf="http://www.w3.org/1999/02/22-rdf-syntax-ns#"
   xmlns:svg="http://www.w3.org/2000/svg"
   xmlns="http://www.w3.org/2000/svg"
   id="Layer_1"
   viewBox="0 0 104 104"
   version="1.1">
  <metadata
     id="metadata15">
    <rdf:RDF>
      <cc:Work
         rdf:about="">
        <dc:format>image/svg+xml</dc:format>
        <dc:type
           rdf:resource="http://purl.org/dc/dcmitype/StillImage" />
        <dc:title></dc:title>
      </cc:Work>
    </rdf:RDF>
  </metadata>
  <defs
     id="defs13" />
  <style
     id="style2">.st0{fill:none;stroke:#e1b12c;stroke-width:4;stroke-miterlimit:10}.st0,.st1{stroke-linecap:round}.st1,.st2{fill:none;stroke:#e1b12c;stroke-width:4;stroke-linejoin:round;stroke-miterlimit:10}</style>
  <path
     style="color:#000000;font-style:normal;font-variant:normal;font-weight:normal;font-stretch:normal;font-size:medium;line-height:normal;font-family:sans-serif;font-variant-ligatures:normal;font-variant-position:normal;font-variant-caps:normal;font-variant-numeric:normal;font-variant-alternates:normal;font-variant-east-asian:normal;font-feature-settings:normal;font-variation-settings:normal;text-indent:0;text-align:start;text-decoration:none;text-decoration-line:none;text-decoration-style:solid;text-decoration-color:#000000;letter-spacing:normal;word-spacing:normal;text-transform:none;writing-mode:lr-tb;direction:ltr;text-orientation:mixed;dominant-baseline:auto;baseline-shift:baseline;text-anchor:start;white-space:normal;shape-padding:0;shape-margin:0;inline-size:0;clip-rule:nonzero;display:inline;overflow:visible;visibility:visible;opacity:1;isolation:auto;mix-blend-mode:normal;color-interpolation:sRGB;color-interpolation-filters:linearRGB;solid-color:#000000;solid-opacity:1;vector-effect:none;fill:#ff4c00;fill-opacity:1;fill-rule:nonzero;stroke:none;stroke-width:4.5;stroke-linecap:butt;stroke-linejoin:miter;stroke-miterlimit:10;stroke-dasharray:none;stroke-dashoffset:0;stroke-opacity:1;paint-order:stroke fill markers;color-rendering:auto;image-rendering:auto;shape-rendering:auto;text-rendering:auto;enable-background:accumulate;stop-color:#000000;stop-opacity:1"
     d="M 6.599219,70.75 C 3.063633,70.75 0.15,73.663633 0.15,77.199219 v 1.601562 C 0.15,82.339912 3.060088,85.25 6.599219,85.25 H 82.200781 C 85.739912,85.25 88.65,82.339912 88.65,78.800781 V 77.199219 C 88.65,73.660088 85.739912,70.75 82.200781,70.75 Z m 0,4.5 h 6.160156 l -2.75,5.5 H 6.599219 C 5.538349,80.75 4.65,79.861651 4.65,78.800781 V 77.199219 C 4.65,76.095613 5.495613,75.25 6.599219,75.25 Z m 11.191406,0 h 4.96875 l -2.75,5.5 h -4.96875 z m 10,0 h 4.96875 l -2.75,5.5 h -4.96875 z m 10,0 h 4.96875 l -2.75,5.5 h -4.96875 z m 10,0 h 4.96875 l -2.75,5.5 h -4.96875 z m 10,0 h 4.96875 l -2.75,5.5 h -4.96875 z m 10,0 h 4.96875 l -2.75,5.5 h -4.96875 z m 10,0 h 4.410156 c 1.06087,0 1.949219,0.888349 1.949219,1.949219 v 1.601562 c 0,1.06087 -0.888349,1.949219 -1.949219,1.949219 h -7.160156 z"
     id="path842" />
  <path
     style="color:#000000;font-style:normal;font-variant:normal;font-weight:normal;font-stretch:normal;font-size:medium;line-height:normal;font-family:sans-serif;font-variant-ligatures:normal;font-variant-position:normal;font-variant-caps:normal;font-variant-numeric:normal;font-variant-alternates:normal;font-variant-east-asian:normal;font-feature-settings:normal;font-variation-settings:normal;text-indent:0;text-align:start;text-decoration:none;text-decoration-line:none;text-decoration-style:solid;text-decoration-color:#000000;letter-spacing:normal;word-spacing:normal;text-transform:none;writing-mode:lr-tb;direction:ltr;text-orientation:mixed;dominant-baseline:auto;baseline-shift:baseline;text-anchor:start;white-space:normal;shape-padding:0;shape-margin:0;inline-size:0;clip-rule:nonzero;display:inline;overflow:visible;visibility:visible;opacity:1;isolation:auto;mix-blend-mode:normal;color-interpolation:sRGB;color-interpolation-filters:linearRGB;solid-color:#000000;solid-opacity:1;vector-effect:none;fill:#ff4c00;fill-opacity:1;fill-rule:nonzero;stroke:none;stroke-width:4;stroke-linecap:butt;stroke-linejoin:round;stroke-miterlimit:10;stroke-dasharray:none;stroke-dashoffset:0;stroke-opacity:1;paint-order:stroke fill markers;color-rendering:auto;image-rendering:auto;shape-rendering:auto;text-rendering:auto;enable-background:accumulate;stop-color:#000000;stop-opacity:1"
     d="m 8.4,86 v 6 a 2.0002,2.0002 0 0 0 2,2 h 8 a 2.0002,2.0002 0 0 0 2,-2 v -6 h -4 v 4 h -4 v -4 z m 60,0 v 6 a 2.0002,2.0002 0 0 0 2,2 h 8 a 2.0002,2.0002 0 0 0 2,-2 v -6 h -4 v 4 h -4 v -4 z"
     id="path846" />
  <path
     style="color:#000000;font-style:normal;font-variant:normal;font-weight:normal;font-stretch:normal;font-size:medium;line-height:normal;font-family:sans-serif;font-variant-ligatures:normal;font-variant-position:normal;font-variant-caps:normal;font-variant-numeric:normal;font-variant-alternates:normal;font-variant-east-asian:normal;font-feature-settings:normal;font-variation-settings:normal;text-indent:0;text-align:start;text-decoration:none;text-decoration-line:none;text-decoration-style:solid;text-decoration-color:#000000;letter-spacing:normal;word-spacing:normal;text-transform:none;writing-mode:lr-tb;direction:ltr;text-orientation:mixed;dominant-baseline:auto;baseline-shift:baseline;text-anchor:start;white-space:normal;shape-padding:0;shape-margin:0;inline-size:0;clip-rule:nonzero;display:inline;overflow:visible;visibility:visible;opacity:1;isolation:auto;mix-blend-mode:normal;color-interpolation:sRGB;color-interpolation-filters:linearRGB;solid-color:#000000;solid-opacity:1;vector-effect:none;fill:#ff4c00;fill-opacity:1;fill-rule:evenodd;stroke:none;stroke-width:5;stroke-linecap:round;stroke-linejoin:round;stroke-miterlimit:10;stroke-dasharray:none;stroke-dashoffset:0;stroke-opacity:1;paint-order:normal;color-rendering:auto;image-rendering:auto;shape-rendering:auto;text-rendering:auto;enable-background:accumulate;stop-color:#000000;stop-opacity:1"
     d="M 12.394141,13.400391 A 2.5,2.5 0 0 0 10.025,15.121094 c 0,0 -1.017355,3.098584 -2.035156,6.77539 C 6.972043,25.573291 5.9,29.608869 5.9,32.599609 c 0,3.833334 2.427959,6.872695 4.431641,9.828125 2.003681,2.95543 3.568359,5.861936 3.568359,6.873047 0,1.50926 -0.927957,5.820948 -1.910156,9.369141 C 11.007645,62.218115 10.025,65.220703 10.025,65.220703 A 2.5,2.5 0 0 0 11.620703,68.375 2.5,2.5 0 0 0 14.775,66.779297 c 0,0 1.017355,-3.098584 2.035156,-6.775391 C 17.827957,56.327099 18.9,52.291522 18.9,49.300781 18.9,45.511892 16.464678,42.567617 14.468359,39.623047 12.472041,36.678477 10.9,33.766276 10.9,32.599609 c 0,-1.509259 0.927957,-5.8229 1.910156,-9.371093 C 13.792355,19.680322 14.775,16.679687 14.775,16.679688 a 2.5,2.5 0 0 0 -1.595703,-3.154297 2.5,2.5 0 0 0 -0.785156,-0.125 z m 16,0 A 2.5,2.5 0 0 0 26.025,15.121094 c 0,0 -1.017355,3.098584 -2.035156,6.77539 C 22.972043,25.573291 21.9,29.608869 21.9,32.599609 c 0,3.833334 2.427959,6.872695 4.431641,9.828125 2.003681,2.95543 3.568359,5.861936 3.568359,6.873047 0,1.50926 -0.927957,5.820948 -1.910156,9.369141 C 27.007645,62.218115 26.025,65.220703 26.025,65.220703 A 2.5,2.5 0 0 0 27.620703,68.375 2.5,2.5 0 0 0 30.775,66.779297 c 0,0 1.017355,-3.098584 2.035156,-6.775391 C 33.827957,56.327099 34.9,52.291522 34.9,49.300781 34.9,45.511892 32.464678,42.567617 30.468359,39.623047 28.472041,36.678477 26.9,33.766276 26.9,32.599609 c 0,-1.509259 0.927957,-5.8229 1.910156,-9.371093 C 29.792355,19.680322 30.775,16.679687 30.775,16.679688 a 2.5,2.5 0 0 0 -1.595703,-3.154297 2.5,2.5 0 0 0 -0.785156,-0.125 z m 16,0 A 2.5,2.5 0 0 0 42.025,15.121094 c 0,0 -1.017355,3.098584 -2.035156,6.77539 C 38.972043,25.573291 37.9,29.608869 37.9,32.599609 c 0,3.833334 2.427959,6.872695 4.431641,9.828125 2.003681,2.95543 3.568359,5.861936 3.568359,6.873047 0,1.50926 -0.927957,5.820948 -1.910156,9.369141 C 43.007645,62.218115 42.025,65.220703 42.025,65.220703 A 2.5,2.5 0 0 0 43.620703,68.375 2.5,2.5 0 0 0 46.775,66.779297 c 0,0 1.017355,-3.098584 2.035156,-6.775391 C 49.827957,56.327099 50.9,52.291522 50.9,49.300781 50.9,45.511892 48.464678,42.567617 46.468359,39.623047 44.472041,36.678477 42.9,33.766276 42.9,32.599609 c 0,-1.509259 0.927957,-5.8229 1.910156,-9.371093 C 45.792355,19.680322 46.775,16.679687 46.775,16.679688 a 2.5,2.5 0 0 0 -1.595703,-3.154297 2.5,2.5 0 0 0 -0.785156,-0.125 z m 16,0 A 2.5,2.5 0 0 0 58.025,15.121094 c 0,0 -1.017355,3.098584 -2.035156,6.77539 C 54.972043,25.573291 53.9,29.608869 53.9,32.599609 c 0,3.833334 2.427959,6.872695 4.431641,9.828125 2.003681,2.95543 3.568359,5.861936 3.568359,6.873047 0,1.50926 -0.927957,5.820948 -1.910156,9.369141 C 59.007645,62.218115 58.025,65.220703 58.025,65.220703 A 2.5,2.5 0 0 0 59.620703,68.375 2.5,2.5 0 0 0 62.775,66.779297 c 0,0 1.017355,-3.098584 2.035156,-6.775391 C 65.827957,56.327099 66.9,52.291522 66.9,49.300781 66.9,45.511892 64.464678,42.567617 62.468359,39.623047 60.472041,36.678477 58.9,33.766276 58.9,32.599609 c 0,-1.509259 0.927957,-5.8229 1.910156,-9.371093 C 61.792355,19.680322 62.775,16.679687 62.775,16.679688 a 2.5,2.5 0 0 0 -1.595703,-3.154297 2.5,2.5 0 0 0 -0.785156,-0.125 z m 16,0 A 2.5,2.5 0 0 0 74.025,15.121094 c 0,0 -1.017355,3.098584 -2.035156,6.77539 C 70.972043,25.573291 69.9,29.608869 69.9,32.599609 c 0,3.833334 2.427959,6.872695 4.431641,9.828125 2.003681,2.95543 3.568359,5.861936 3.568359,6.873047 0,1.50926 -0.927957,5.820948 -1.910156,9.369141 C 75.007645,62.218115 74.025,65.220703 74.025,65.220703 A 2.5,2.5 0 0 0 75.620703,68.375 2.5,2.5 0 0 0 78.775,66.779297 c 0,0 1.017355,-3.098584 2.035156,-6.775391 C 81.827957,56.327099 82.9,52.291522 82.9,49.300781 82.9,45.511892 80.464678,42.567617 78.468359,39.623047 76.472041,36.678477 74.9,33.766276 74.9,32.599609 c 0,-1.509259 0.927957,-5.8229 1.910156,-9.371093 C 77.792355,19.680322 78.775,16.679687 78.775,16.679688 a 2.5,2.5 0 0 0 -1.595703,-3.154297 2.5,2.5 0 0 0 -0.785156,-0.125 z"
     id="path850" />
</svg>
