<?xml version="1.0" encoding="UTF-8" standalone="no"?>
<svg
   xmlns:dc="http://purl.org/dc/elements/1.1/"
   xmlns:cc="http://creativecommons.org/ns#"
   xmlns:rdf="http://www.w3.org/1999/02/22-rdf-syntax-ns#"
   xmlns:svg="http://www.w3.org/2000/svg"
   xmlns="http://www.w3.org/2000/svg"
   viewBox="0 0 100 125"
   version="1.1"
   id="svg4">
  <metadata
     id="metadata10">
    <rdf:RDF>
      <cc:Work
         rdf:about="">
        <dc:format>image/svg+xml</dc:format>
        <dc:type
           rdf:resource="http://purl.org/dc/dcmitype/StillImage" />
        <dc:title></dc:title>
      </cc:Work>
    </rdf:RDF>
  </metadata>
  <defs
     id="defs8" />
  <path
     style="fill:#ff4c00;fill-opacity:1;fill-rule:nonzero;stroke:none"
     d="m 59,34 c -3,2.966667 -6,5.933333 -9,8.9 -3,-2.966667 -6,-5.933333 -9,-8.9 -2.333333,2.333333 -4.666667,4.666667 -7,7 2.966667,3 5.933333,6 8.9,9 -2.966667,3 -5.933333,6 -8.9,9 2.333333,2.333333 4.666667,4.666667 7,7 3,-2.966667 6,-5.933333 9,-8.9 3,2.966667 6,5.933333 9,8.9 2.333333,-2.333333 4.666667,-4.666667 7,-7 -2.966667,-3 -5.933333,-6 -8.9,-9 2.966667,-3 5.933333,-6 8.9,-9 -2.333333,-2.333333 -4.666667,-4.666667 -7,-7 z"
     id="path840" />
  <path
     style="fill:#ff4c00;fill-opacity:1;fill-rule:nonzero;stroke:none"
     d="m 71.2,39.6 c 5.533333,3.466667 11.066667,6.933333 16.6,10.4 -5.533333,3.466667 -11.066667,6.933333 -16.6,10.4 0.866667,1.4 1.733333,2.8 2.6,4.2 6.666667,-4.166667 13.333333,-8.333333 20,-12.5 0,-1.4 0,-2.8 0,-4.2 -6.666667,-4.166667 -13.333333,-8.333333 -20,-12.5 -0.866667,1.4 -1.733333,2.8 -2.6,4.2 z"
     id="path838" />
  <path
     style="fill:#ff4c00;fill-opacity:1;fill-rule:nonzero;stroke:none"
     d="m 26.2,35.4 c -6.666667,4.166667 -13.333333,8.333333 -20,12.5 0,1.4 0,2.8 0,4.2 6.666667,4.166667 13.333333,8.333333 20,12.5 0.866667,-1.4 1.733333,-2.8 2.6,-4.2 C 23.266667,56.933333 17.733333,53.466667 12.2,50 17.733333,46.533333 23.266667,43.066667 28.8,39.6 27.933333,38.2 27.066667,36.8 26.2,35.4 Z"
     id="path2" />
</svg>
