<?xml version="1.0" encoding="UTF-8" standalone="no"?>
<svg
   xmlns:dc="http://purl.org/dc/elements/1.1/"
   xmlns:cc="http://creativecommons.org/ns#"
   xmlns:rdf="http://www.w3.org/1999/02/22-rdf-syntax-ns#"
   xmlns:svg="http://www.w3.org/2000/svg"
   xmlns="http://www.w3.org/2000/svg"
   viewBox="0 0 512 512"
   version="1.1"
   id="svg8">
  <metadata
     id="metadata14">
    <rdf:RDF>
      <cc:Work
         rdf:about="">
        <dc:format>image/svg+xml</dc:format>
        <dc:type
           rdf:resource="http://purl.org/dc/dcmitype/StillImage" />
        <dc:title></dc:title>
      </cc:Work>
    </rdf:RDF>
  </metadata>
  <defs
     id="defs12" />
  <g
     id="g2074"
     transform="translate(-9.6857499,0.65702234)">
    <g
       style="fill:#595959;fill-opacity:1;fill-rule:evenodd;"
       transform="matrix(1.1123657,0,0,-1.1123657,291.17741,498.01611)"
       id="g979">
      <path
         id="path981"
         style="fill:#595959;fill-opacity:1;fill-rule:evenodd;"
         d="m 0,0 6.214,-0.033 c 13.854,-0.297 26.239,0.252 40.013,1.772 2.252,0.22 4.405,1.559 5.598,3.482 l 0.074,0.265 c -0.015,2.438 -1.35,4.857 -3.404,6.171 -3.834,1.771 -7.174,4.486 -9.692,7.877 -1.448,1.782 -2.962,3.278 -4.762,4.704 -4.615,3.136 -9.525,5.38 -14.917,6.817 l -2.123,0.729 c -1.346,0.313 -2.518,1.352 -2.99,2.651 0.01,1.484 0.752,2.971 1.931,3.871 4.523,4.437 7.647,10.33 8.779,16.564 0.088,0.513 0.363,0.999 0.758,1.337 3.285,2.542 5.609,6.4 6.321,10.492 l 0.741,3.566 c 2.667,11.523 1.805,23.874 -2.438,34.915 -3.029,6.126 -7.324,11.449 -12.671,15.705 -1.115,1.065 -2.576,1.776 -4.102,1.998 -0.84,0.009 -1.669,0.236 -2.396,0.656 -1.155,1.029 -1.88,2.565 -1.941,4.111 l -0.017,0.11 c -1.559,5.748 -1.986,11.587 -1.28,17.501 0.541,3.224 0.284,6.535 -0.747,9.638 -2.232,5.785 -5.994,10.927 -10.831,14.806 -7.341,6.182 -13.944,11.339 -21.719,16.963 l -0.118,0.064 c -0.915,0.339 -1.319,1.432 -0.846,2.285 1.128,0.894 2.654,1.31 4.079,1.112 17.729,-1.163 35.368,1.73 51.797,8.494 22.368,9.186 41.72,26.169 53.732,47.156 2.497,4.18 4.536,7.92 6.7,12.282 11.704,22.553 16.702,48.558 14.192,73.843 -2.457,20.203 -9.241,39.397 -20.025,56.657 -12.136,20.807 -31.187,37.718 -53.287,47.299 -20.252,8.456 -42.205,11.927 -64.077,10.13 -16.682,-0.804 -32.711,-4.944 -47.696,-12.319 -22.343,-11.381 -41.038,-30.198 -52.273,-52.614 -9.301,-17.387 -14.907,-36.038 -16.735,-55.67 -0.955,-14.588 0.899,-28.864 5.548,-42.724 l 2.688,-8.208 c 7.32,-21.528 20.317,-40.928 37.441,-55.887 12.231,-10.517 26.382,-18.172 41.877,-22.653 l 0.12,-0.019 c 1.668,-0.064 3.002,-1.441 3.012,-3.111 0.185,-1.25 -0.728,-2.405 -1.987,-2.513 l -0.139,-0.033 -12.754,-5.009 c -0.712,-0.352 -1.485,-0.541 -2.279,-0.557 -4.854,0.417 -9.793,-2.249 -12.108,-6.535 -0.551,-0.566 -1.329,-0.923 -2.117,-0.973 -3.735,-0.422 -7.264,-2.75 -9.122,-6.018 -1.852,-2.741 -3.306,-5.395 -4.621,-8.43 -2.586,-6.347 -6.078,-11.982 -10.613,-17.121 -5.222,-5.694 -8.246,-13.52 -8.208,-21.246 -0.094,-0.747 -0.39,-1.463 -0.851,-2.058 -7.815,-14.099 -9.831,-31.62 -5.423,-47.125 l 0.931,-2.174 c 0.101,-0.235 0.37,-0.356 0.612,-0.275 1.174,0.39 2.22,0.89 3.261,1.558 0.148,-3.487 0.016,-6.654 -0.422,-10.116 -0.824,-5.928 0.654,-12.241 4.023,-17.186 3.22,-4.969 5.863,-9.424 8.682,-14.63 2.063,-3.751 5.836,-6.609 10.005,-7.579 3.334,-0.923 6.207,-1.82 9.474,-2.96 -1.218,-8.345 -2.452,-15.529 -4.089,-23.802 -0.586,-2.445 1.163,-4.88 3.667,-5.107 3.104,-0.77 5.965,-1.237 9.152,-1.494 l 77.786,-1.534 1.945,0.066 c 2.386,-0.099 4.652,1.489 5.373,3.766 0.258,1.653 0.116,3.341 -0.414,4.928 z" />
    </g>
    <g
       transform="matrix(0.83427466,0,0,0.83427466,-128.88385,-318.41181)"
       style="fill-opacity:1;fill-rule:evenodd;stroke:none"
       id="g2024">
      <g
         id="g983"
         transform="matrix(1.3333333,0,0,-1.3333333,588.62276,656.42734)"
         style="fill:#f2f2f2;fill-opacity:1;fill-rule:evenodd;stroke:none;stroke-opacity:1">
        <path
           d="m 0,0 -18.364,17.074 c -20.323,18.833 -45.528,32.077 -72.567,38.129 -30.998,7.033 -62.541,7.557 -93.756,1.558 l -13.15,-2.539 c -0.613,8.277 -4.564,16.399 -10.697,21.99 -0.991,0.975 -1.634,2.321 -1.769,3.705 1.714,25.957 10.678,51.309 25.662,72.574 13.631,20.024 34.436,35.397 57.581,42.545 21.683,6.563 44.674,7.706 66.901,3.325 18.061,-3.126 35.111,-10.741 49.492,-22.106 C 6.97,162.009 20.525,142.875 28.114,121.51 34.307,106.251 37.275,90.223 36.959,73.757 35.799,53.366 30.475,33.778 21.153,15.605 20.368,14.517 19.357,13.626 18.177,12.986 11.394,9.513 5.485,5.291 0,0"
           style="fill:#f2f2f2;fill-opacity:1;fill-rule:evenodd;stroke:none;stroke-opacity:1"
           id="path985" />
      </g>
      <g
         id="g987"
         transform="matrix(1.3333333,0,0,-1.3333333,451.43866,947.22091)"
         style="fill:#f2f2f2;fill-opacity:1;fill-rule:evenodd;stroke:none;stroke-opacity:1">
        <path
           d="m 0,0 -1.228,6.479 c -0.452,2.487 0.275,5.208 1.908,7.137 0.813,-1.228 1.638,-2.278 2.639,-3.359 1.767,-1.993 4.667,-2.921 7.263,-2.323 2.505,0.812 4.731,2.566 6.106,4.813 1.164,1.415 2.887,2.395 4.698,2.674 6.793,0.905 12.816,1.412 19.664,1.654 2.254,0.153 4.596,-0.607 6.33,-2.054 1.378,-1.425 2.413,-3.117 3.054,-4.992 l -1.49,0.146 C 40.08,11.743 31.054,11.297 22.388,8.862 18.097,7.799 14.139,5.281 11.357,1.846 9.928,0.46 8.03,-0.458 6.056,-0.717 4.225,-1.184 2.259,-1.111 0.466,-0.511 0.258,-0.404 0.088,-0.217 0,0"
           style="fill:#f2f2f2;fill-opacity:1;fill-rule:evenodd;stroke:none;stroke-opacity:1"
           id="path989" />
      </g>
      <g
         id="g991"
         transform="matrix(1.3333333,0,0,-1.3333333,523.15336,884.18581)"
         style="fill:#f2f2f2;fill-opacity:1;fill-rule:evenodd;stroke:none;stroke-opacity:1">
        <path
           d="m 0,0 0.874,3.878 c 0.627,3.379 1.429,6.378 2.573,9.618 1.723,4.245 2.645,8.61 2.783,13.189 0.042,6.63 -2.217,13.323 -6.269,18.571 -1.032,1.2 -1.878,2.353 -2.712,3.699 l -0.135,0.143 -0.051,0.112 0.073,0.1 c 1.42,-0.239 2.765,-0.852 3.877,-1.768 C 8.016,42.309 13.17,34.466 15.195,25.961 16.39,20.541 16.803,15.302 16.473,9.761 16.299,4.125 15.201,-1.23 13.143,-6.48 12.573,-8.048 11.651,-9.456 10.439,-10.604 9.851,-8.989 9.415,-7.52 9.028,-5.846 8.553,-3.701 7.083,-1.755 5.15,-0.712 3.517,-0.06 1.749,0.185 0,0"
           style="fill:#f2f2f2;fill-opacity:1;fill-rule:evenodd;stroke:none;stroke-opacity:1"
           id="path993" />
      </g>
      <g
         id="g995"
         transform="matrix(1.3333333,0,0,-1.3333333,461.50976,899.04131)"
         style="fill:#f2f2f2;fill-opacity:1;fill-rule:evenodd;stroke:none;stroke-opacity:1">
        <path
           d="m 0,0 0.128,1.917 c 0.364,8.535 -3.792,17.251 -10.653,22.342 -4.629,3.503 -9.698,6.047 -15.273,7.665 5.252,-0.301 9.973,-0.959 15.107,-2.106 4.32,-1.126 8.215,-2.705 12.098,-4.907 1.767,-1.057 3.109,-2.87 3.603,-4.869 0.483,-3.2 0.326,-6.393 -0.468,-9.53 C 3.467,6.746 2.006,3.363 0,0"
           style="fill:#f2f2f2;fill-opacity:1;fill-rule:evenodd;stroke:none;stroke-opacity:1"
           id="path997" />
      </g>
      <g
         id="g999"
         transform="matrix(1.3333333,0,0,-1.3333333,378.60025,781.40974)"
         style="fill:#f2f2f2;fill-opacity:1;fill-rule:evenodd;stroke:none;stroke-opacity:1">
        <path
           d="m 0,0 -2.377,-4.936 c -0.333,-0.901 -1.156,-1.615 -2.095,-1.817 -2.6,-0.143 -4.961,-0.075 -7.549,0.214 -1.64,0.228 -3.397,-0.239 -4.707,-1.253 -1.193,-1.275 -1.978,-2.94 -2.203,-4.671 -0.643,-3.387 -1.133,-6.319 -1.624,-9.731 l -0.444,-1.279 c -1.559,0.268 -2.988,0.73 -4.409,1.425 -0.544,0.599 -0.793,1.471 -0.648,2.267 l 0.808,2.723 c 0.639,3.06 1.83,5.892 3.569,8.49 l 4.652,6.172 c 4.868,6.426 8.581,13.118 11.457,20.649 3.085,-1.79 5.72,-3.454 8.663,-5.47 C 3.842,12.05 4.236,10.947 4.121,9.905 3.523,8.043 2.855,6.409 1.98,4.66 1.206,3.083 0.597,1.651 0,0"
           style="fill:#f2f2f2;fill-opacity:1;fill-rule:evenodd;stroke:none;stroke-opacity:1"
           id="path1001" />
      </g>
      <g
         id="g1003"
         transform="matrix(1.3333333,0,0,-1.3333333,354.85359,814.10254)"
         style="fill:#f2f2f2;fill-opacity:1;fill-rule:evenodd;stroke:none;stroke-opacity:1">
        <path
           d="m 0,0 2.7,13.151 c 0.303,1.306 1.619,2.108 2.919,1.781 2.658,-0.287 5.057,-0.377 7.729,-0.29 1.407,-0.016 2.834,0.619 3.765,1.675 l 0.068,0.1 c 2.863,5.529 5.187,10.434 7.655,16.149 0.65,1.319 0.8,2.901 0.411,4.319 -0.719,1.829 -2.244,3.365 -4.068,4.099 -2.669,1.574 -4.955,3.099 -7.432,4.959 l 1.838,1.369 c 4.834,4.616 12.481,4.474 17.14,-0.319 2.505,-2.936 3.508,-7.164 2.588,-10.913 l -1.18,-6.57 C 32.785,22.01 32.629,14.7 33.657,7.148 29.135,8.245 25.23,9.111 20.669,10.032 19.176,10.433 17.496,10.203 16.166,9.416 14.8,8.278 13.706,6.892 12.918,5.299 L 11.82,3.42 C 11.379,2.453 10.602,1.631 9.661,1.136 7.297,0.541 5.051,0.241 2.614,0.194 Z"
           style="fill:#f2f2f2;fill-opacity:1;fill-rule:evenodd;stroke:none;stroke-opacity:1"
           id="path1005" />
      </g>
      <g
         id="g1007"
         transform="matrix(1.3333333,0,0,-1.3333333,501.84696,799.94224)"
         style="fill:#f2f2f2;fill-opacity:1;fill-rule:evenodd;stroke:none;stroke-opacity:1">
        <path
           d="m 0,0 -1.998,1.432 1.753,3.665 c 1.747,3.198 2.003,7.245 0.673,10.638 l -6.793,15.473 c -1.017,2.45 -1.967,4.551 -3.137,6.932 l 3.296,-2.601 C -1.606,31.984 2.102,27.478 4.705,22.28 5.149,21.288 5.47,20.349 5.725,19.292 6.429,15.582 6.582,11.991 6.195,8.234 5.945,5.244 5.977,2.495 6.296,-0.489 6.452,-2.325 6.708,-3.961 7.12,-5.757 4.87,-3.553 2.626,-1.739 0,0"
           style="fill:#f2f2f2;fill-opacity:1;fill-rule:evenodd;stroke:none;stroke-opacity:1"
           id="path1009" />
      </g>
      <g
         id="g1011"
         transform="matrix(1.3333333,0,0,-1.3333333,377.79292,982.61091)"
         style="fill:#f2f2f2;fill-opacity:1;fill-rule:evenodd;stroke:none;stroke-opacity:1">
        <path
           d="m 0,0 0.306,0.599 24.708,-1.513 62.595,-0.041 c 1.567,0.287 3.268,-0.066 4.592,-0.951 -0.362,-0.588 -0.811,-1.089 -1.355,-1.513 -1.494,-0.502 -2.994,-0.746 -4.57,-0.742 L 23.747,-3.513 C 17.707,-3.293 12.393,-2.838 6.405,-2.026 4.135,-1.996 1.874,-1.281 0,0"
           style="fill:#f2f2f2;fill-opacity:1;fill-rule:evenodd;stroke:none;stroke-opacity:1"
           id="path1013" />
      </g>
      <g
         id="g1015"
         transform="matrix(1.3333333,0,0,-1.3333333,520.03896,881.33941)"
         style="fill:#f2f2f2;fill-opacity:1;fill-rule:evenodd;stroke:none;stroke-opacity:1">
        <path
           d="m 0,0 -2.683,-15.241 c -0.791,-5.436 -5.449,-9.772 -10.928,-10.172 -4.565,-0.753 -8.498,-1.512 -13.014,-2.513 -4.562,-0.59 -8.811,-3.58 -10.905,-7.675 -1.085,-2.762 -4.281,-4.059 -6.983,-2.833 -2.999,1.599 -4.793,5.092 -4.346,8.46 0.397,2.669 2.748,4.723 5.446,4.757 2.639,0.302 4.954,0.686 7.549,1.253 12.941,2.562 25.035,10.118 33.011,20.627 L 0.211,0.961 0.009,0.041 Z"
           style="fill:#f2f2f2;fill-opacity:1;fill-rule:evenodd;stroke:none;stroke-opacity:1"
           id="path1017" />
      </g>
      <g
         id="g1019"
         transform="matrix(1.3333333,0,0,-1.3333333,446.52876,946.53071)"
         style="fill:#f2f2f2;fill-opacity:1;fill-rule:evenodd;stroke:none;stroke-opacity:1">
        <path
           d="m 0,0 -7.078,-0.869 c -5.5,-0.529 -10.343,-1.267 -15.751,-2.399 l -4.126,-1.163 c -3.932,-1.123 -7.477,-3.749 -9.699,-7.181 -1.992,-3.641 -3.142,-7.633 -3.392,-11.775 -0.012,-0.436 -0.136,-0.864 -0.357,-1.24 -2.271,-0.227 -4.394,-0.195 -6.658,0.1 -0.539,0.321 -0.983,0.8 -1.264,1.361 l 0.859,-0.456 c 1.584,-1.017 3.734,-0.69 4.945,0.75 0.944,1.224 1.459,2.794 1.424,4.339 0.199,1.868 -0.531,3.844 -1.897,5.135 -0.864,0.733 -2.13,0.978 -3.205,0.62 l -0.106,-0.05 c -0.897,-0.561 -1.662,-1.235 -2.332,-2.054 l 1.463,13.091 1.687,0.833 c 1.219,0.371 2.322,1.141 3.09,2.157 l 0.087,0.184 c 0.336,1.412 0.354,2.867 0.051,4.286 3.388,0.841 6.319,1.689 9.632,2.789 9.444,3.436 20.208,3.5 29.693,0.177 0.55,-0.169 1.033,-0.58 1.287,-1.097 z"
           style="fill:#f2f2f2;fill-opacity:1;fill-rule:evenodd;stroke:none;stroke-opacity:1"
           id="path1021" />
      </g>
      <g
         id="g1023"
         transform="matrix(1.3333333,0,0,-1.3333333,401.23319,817.80764)"
         style="fill:#f2f2f2;fill-opacity:1;fill-rule:evenodd;stroke:none;stroke-opacity:1">
        <path
           d="M 0,0 -0.007,2.698 C -0.227,4.063 0.755,5.339 2.13,5.477 2.386,5.502 2.583,5.725 2.577,5.982 L 2.151,24.363 c -0.18,1.543 0.746,3.087 2.192,3.656 4.176,1.858 6.785,6.462 6.232,11 -0.184,3.939 -0.888,7.619 -2.173,11.349 -0.906,3.163 -2.916,6.035 -5.579,7.969 -2.463,1.334 -5.36,1.886 -8.141,1.551 1.536,1.692 4.158,1.997 6.041,0.701 2.588,-1.306 4.841,-3.032 6.777,-5.19 5.133,-5.937 8.702,-13.102 10.348,-20.775 0.493,-2.889 3.218,-4.847 6.113,-4.392 l 39.475,1.347 c 1.927,-0.063 3.898,0.61 5.385,1.838 l 0.118,0.143 c 0.48,0.87 0.739,1.846 0.752,2.84 l 1.537,-3.162 c 1.477,-2.899 2.227,-6.114 2.185,-9.368 -1.932,0.578 -3.7,0.974 -5.694,1.276 C 52.415,26.538 37.651,25.48 22.702,21.921 20.39,21.129 18.323,19.599 16.89,17.62 14.704,14.393 12.907,11.486 10.997,8.088 8.524,4.173 4.474,1.194 0,0"
           style="fill:#f2f2f2;fill-opacity:1;fill-rule:evenodd;stroke:none;stroke-opacity:1"
           id="path1025" />
      </g>
      <g
         id="g1027"
         transform="matrix(1.3333333,0,0,-1.3333333,498.92456,980.69031)"
         style="fill:#f2f2f2;fill-opacity:1;fill-rule:evenodd;stroke:none;stroke-opacity:1">
        <path
           d="m 0,0 -0.976,-0.169 -66.184,0.2 c -3.177,0.261 -6.006,0.693 -9.115,1.393 -0.035,3.672 0.917,7.325 2.74,10.512 2.409,3.455 6.17,6.022 10.266,7.005 6.33,1.985 12.611,2.934 19.245,2.907 8.546,0.405 17.291,-2.127 24.298,-7.037 3.838,-3.013 7.089,-5.772 10.688,-9.067 L -8.665,5.319 C -8.754,5.181 -8.937,5.134 -9.082,5.213 l -0.2,0.059 c -20.343,1.54 -38.251,2.111 -58.651,1.87 -0.468,0.084 -0.98,-0.086 -1.307,-0.432 -0.223,-0.236 -0.158,-0.627 0.129,-0.779 1.266,-0.668 2.644,-1.048 4.073,-1.123 L -10.082,2.853 C -6.54,2.789 -3.05,1.801 0,0"
           style="fill:#f2f2f2;fill-opacity:1;fill-rule:evenodd;stroke:none;stroke-opacity:1"
           id="path1029" />
      </g>
      <g
         id="g1031"
         transform="matrix(1.3333333,0,0,-1.3333333,487.82376,763.53604)"
         style="fill:#f2f2f2;fill-opacity:1;fill-rule:evenodd;stroke:none;stroke-opacity:1">
        <path
           d="M 0,0 1.431,-3.202 C 1.845,-3.854 1.904,-4.728 1.58,-5.43 0.677,-6.051 -0.478,-6.329 -1.565,-6.187 l -39.226,-1.259 c -1.681,-0.243 -3.261,0.899 -3.558,2.572 l -0.605,2.029 c -2.37,9.447 -7.76,18.168 -15.149,24.513 l 12.758,5 c 1.904,-2.751 3.749,-5.096 5.976,-7.593 2.467,-2.418 5.684,-4.077 9.083,-4.684 5.776,-1.283 12.059,1.441 15.072,6.532 0.271,0.696 0.813,1.294 1.48,1.63 0.785,-0.007 1.563,-0.437 1.987,-1.097 l 0.089,-0.104 c 1.536,-1.363 2.823,-2.708 4.116,-4.304 C -5.575,11.666 -2.513,6.196 0,0"
           style="fill:#f2f2f2;fill-opacity:1;fill-rule:evenodd;stroke:none;stroke-opacity:1"
           id="path1033" />
      </g>
      <g
         id="g1035"
         transform="matrix(1.3333333,0,0,-1.3333333,502.55016,964.23651)"
         style="fill:#f2f2f2;fill-opacity:1;fill-rule:evenodd;stroke:none;stroke-opacity:1">
        <path
           d="m 0,0 36.604,-0.337 c 3.543,0.15 6.842,-0.101 10.322,-0.788 1.381,-0.633 2.444,-1.971 2.748,-3.46 C 48.595,-5.596 47.128,-6.213 45.65,-6.277 28.308,-8.306 12.162,-8.458 -5.216,-6.76 c -1.577,0.14 -3.116,0.819 -4.282,1.888 -5.312,5.763 -11.249,10.416 -18.112,14.199 3.412,4.293 8.093,7.57 13.294,9.308 6.966,1.994 14.216,2.407 21.363,1.215 4.542,-0.517 8.617,-1.337 13.005,-2.62 C 28.434,15.021 36.064,9.605 40.916,2.422 33.781,2.689 27.572,2.721 20.435,2.527 8.737,1.983 -1.985,2.51 -13.574,4.2 -13.819,4.236 -14.059,4.079 -14.124,3.84 -14.189,3.601 -14.062,3.344 -13.833,3.25 -9.349,1.422 -4.828,0.36 0,0"
           style="fill:#f2f2f2;fill-opacity:1;fill-rule:evenodd;stroke:none;stroke-opacity:1"
           id="path1037" />
      </g>
      <g
         id="g1039"
         transform="matrix(1.3333333,0,0,-1.3333333,410.55305,926.15251)"
         style="fill:#f2f2f2;fill-opacity:1;fill-rule:evenodd;stroke:none;stroke-opacity:1">
        <path
           d="m 0,0 -6.459,-2.954 -6.667,7.16 c 3.819,1.868 6.299,6.094 6.068,10.34 -0.198,3.999 -0.486,7.472 -0.949,11.449 -0.122,1.18 -0.007,2.347 0.343,3.481 1.744,4.264 3.163,7.977 4.707,12.317 l 0.023,0.09 c 0.17,1.09 1.356,1.734 2.363,1.283 l 0.102,-0.033 c 3.927,-0.815 7.358,-1.716 11.178,-2.937 5.476,-1.602 10.479,-4.695 14.36,-8.877 3.303,-3.63 5.587,-8.147 6.555,-12.958 C 32.543,12.345 31.506,6.003 28.717,0.594 28.461,-0.115 28.026,-0.75 27.459,-1.245 26.682,-1.587 25.718,-1.477 25.039,-0.966 17.376,2.813 7.932,3.178 0,0"
           style="fill:#f2f2f2;fill-opacity:1;fill-rule:evenodd;stroke:none;stroke-opacity:1"
           id="path1041" />
      </g>
      <g
         id="g1043"
         transform="matrix(1.3333333,0,0,-1.3333333,332.68146,866.13301)"
         style="fill:#f2f2f2;fill-opacity:1;fill-rule:evenodd;stroke:none;stroke-opacity:1">
        <path
           d="M 0,0 -0.444,-0.162 C -1.961,12.243 0.45,25.164 6.341,36.187 l 0.048,0.135 c 0.238,1.163 1.578,1.759 2.601,1.156 6.659,-2.467 14.296,-2.491 20.971,-0.066 2.365,0.825 4.956,-0.547 5.6,-2.968 0.911,-3.801 4.69,-6.218 8.523,-5.45 l 6.45,0.58 c 0.745,-1.505 1.273,-2.975 1.655,-4.611 2.012,-9.784 1.925,-19.731 -0.259,-29.479 -0.511,-3.076 -1.797,-5.986 -3.727,-8.435 l -1.002,0.97 c -2.246,2.539 -5.993,3.615 -9.244,2.653 -2.85,-1.107 -4.961,-3.91 -5.235,-6.956 -0.026,-1.478 -1.026,-2.863 -2.422,-3.352 -7.352,-0.955 -15.073,0.571 -21.509,4.252 -1.219,0.897 -2.149,2.198 -2.604,3.642 L 3.748,-3.569 3.685,-3.437 C 2.802,-2.12 1.74,-1.008 0.465,-0.067 0.334,0.03 0.152,0.056 0,0"
           style="fill:#f2f2f2;fill-opacity:1;fill-rule:evenodd;stroke:none;stroke-opacity:1"
           id="path1045" />
      </g>
      <g
         id="g1047"
         transform="matrix(1.3333333,0,0,-1.3333333,401.62199,821.28864)"
         style="fill:#f2f2f2;fill-opacity:1;fill-rule:evenodd;stroke:none;stroke-opacity:1">
        <path
           d="m 0,0 1.183,0.365 c 4.047,0.954 7.76,3.527 10.076,6.981 2.25,3.667 6.507,6.068 10.809,6.096 l 40.081,2.447 c 6.586,0.603 13.471,-2.354 17.568,-7.546 4.86,-6.192 8.804,-12.11 12.647,-18.979 1.444,-2.93 2.058,-6.253 1.757,-9.506 -0.327,-4.519 -1.224,-8.715 -2.774,-12.974 -5.145,-13.488 -16.361,-24.819 -29.796,-30.1 -5.869,-2.477 -11.878,-3.88 -18.237,-4.258 l 3.753,7.128 c 3.328,5.591 5.348,11.794 5.947,18.273 0.565,3.495 -0.679,7.286 -3.205,9.766 -3.162,2.578 -6.803,4.411 -10.756,5.416 l -5.265,1.393 c -8.65,1.512 -16.787,2.008 -25.557,1.561 l -3.284,-0.002 -0.643,9.403 C 4.234,-9.413 2.73,-4.335 0,0"
           style="fill:#f2f2f2;fill-opacity:1;fill-rule:evenodd;stroke:none;stroke-opacity:1"
           id="path1049" />
      </g>
      <g
         id="g1051"
         transform="matrix(1.3333333,0,0,-1.3333333,583.18876,664.20214)"
         style="fill:#f2f2f2;fill-opacity:1;fill-rule:evenodd;stroke:none;stroke-opacity:1">
        <path
           d="m 0,0 -1.042,-1.504 c -2.639,-5.41 -4.749,-10.255 -6.909,-15.873 -1.026,-2.494 -2.824,-4.673 -5.077,-6.154 -11.452,-7.567 -23.791,-12.808 -37.188,-15.795 -14.094,-2.886 -27.853,-3.55 -42.159,-2.036 -21.327,1.168 -42.183,8.091 -59.975,19.907 -18.089,12.684 -32.525,30.41 -41.284,50.693 -0.538,1.458 -0.774,2.974 -0.706,4.527 1.643,6.792 2.138,13.512 1.508,20.47 5.936,1.015 11.026,1.994 16.915,3.253 2.025,0.692 4.228,-0.467 4.805,-2.527 l 0.041,-0.101 c 4.128,-7.655 7.864,-14.181 12.378,-21.614 0.348,-0.981 1.269,-1.737 2.298,-1.886 1.03,-0.148 2.127,0.317 2.737,1.16 7.696,7.36 15.405,13.392 24.401,19.092 l 9.573,6.642 c 1.502,0.974 3.347,1.442 5.132,1.301 13.611,-1.463 25.836,-3.863 38.991,-7.652 8.735,-1.869 16.695,-7.767 21.025,-15.581 l 4.299,-7.352 c 4.984,-7.563 8.714,-15.224 11.595,-23.812 0.141,-0.627 0.473,-1.212 0.94,-1.655 l 0.145,-0.095 c 1.093,-0.471 2.442,-0.31 3.393,0.406 6.813,3.077 12.7,5.62 19.611,8.47 0.998,0.398 2.194,0.322 3.134,-0.199 z"
           style="fill:#f2f2f2;fill-opacity:1;fill-rule:evenodd;stroke:none;stroke-opacity:1"
           id="path1053" />
      </g>
      <g
         id="g1055"
         transform="matrix(1.3333333,0,0,-1.3333333,610.45936,646.48724)"
         style="fill:#f2f2f2;fill-opacity:1;fill-rule:evenodd;stroke:none;stroke-opacity:1">
        <path
           d="m 0,0 -1.124,-2.153 c -4.957,-8.426 -10.551,-15.683 -17.436,-22.622 -1.614,-1.725 -3.332,-3.137 -5.337,-4.386 2.396,7.4 6.204,14.1 11.337,19.945 C -9.14,-5.204 -4.854,-2.058 0,0"
           style="fill:#f2f2f2;fill-opacity:1;fill-rule:evenodd;stroke:none;stroke-opacity:1"
           id="path1057" />
      </g>
      <g
         id="g1059"
         transform="matrix(1.3333333,0,0,-1.3333333,308.95026,561.17414)"
         style="fill:#f2f2f2;fill-opacity:1;fill-rule:evenodd;stroke:none;stroke-opacity:1">
        <path
           d="m 0,0 c 0.761,-0.508 1.408,-1.077 2.011,-1.766 2.224,-2.753 3.811,-5.904 4.698,-9.33 2.219,-8.125 2.99,-16.258 2.336,-24.654 -0.02,-0.93 -0.167,-1.802 -0.451,-2.688 C 3.415,-26.092 0.572,-13.375 0,0"
           style="fill:#f2f2f2;fill-opacity:1;fill-rule:evenodd;stroke:none;stroke-opacity:1"
           id="path1061" />
      </g>
      <g
         id="g1063"
         transform="matrix(1.3333333,0,0,-1.3333333,455.05376,813.82644)"
         style="fill:#4d4d4d;fill-opacity:1;fill-rule:evenodd;stroke:none;stroke-opacity:1">
        <path
           d="m 0,0 1.61,-0.151 c 8.717,-0.033 16.27,0.153 24.974,0.618 1.422,0.047 2.84,0.715 3.78,1.783 0.299,0.402 0.498,0.868 0.583,1.362 0.066,1.751 -1.172,3.358 -2.882,3.74 -1.949,0.62 -3.906,0.899 -5.951,0.85 C 14.769,7.964 8.485,7.671 1.15,7.224 -0.3,7.26 -1.755,6.476 -2.521,5.244 -2.831,4.625 -2.97,3.925 -2.92,3.234 -2.945,1.568 -1.66,0.145 0,0"
           style="fill:#4d4d4d;fill-opacity:1;fill-rule:evenodd;stroke:none;stroke-opacity:1"
           id="path1065" />
      </g>
      <g
         id="g1067"
         transform="matrix(1.3333333,0,0,-1.3333333,487.97416,841.69294)"
         style="fill:#4d4d4d;fill-opacity:1;fill-rule:evenodd;stroke:none;stroke-opacity:1">
        <path
           d="m 0,0 c 9.295,-0.038 17.547,-0.558 26.773,-1.686 0.439,-0.053 0.875,0.214 1.027,0.63 0.151,0.415 -0.011,0.901 -0.381,1.143 -2.075,1.141 -4.344,1.809 -6.706,1.974 -15.709,1.671 -30.641,1.214 -46.219,-1.413 -2.147,-0.368 -4.086,-0.918 -6.106,-1.734 -0.428,-0.191 -0.662,-0.681 -0.541,-1.133 0.121,-0.453 0.567,-0.761 1.034,-0.714 C -20.576,-0.87 -10.744,0.057 0,0"
           style="fill:#4d4d4d;fill-opacity:1;fill-rule:evenodd;stroke:none;stroke-opacity:1"
           id="path1069" />
      </g>
    </g>
  </g>
</svg>
