<?xml version="1.0" encoding="UTF-8" standalone="no"?>
<svg
   xmlns:dc="http://purl.org/dc/elements/1.1/"
   xmlns:cc="http://creativecommons.org/ns#"
   xmlns:rdf="http://www.w3.org/1999/02/22-rdf-syntax-ns#"
   xmlns:svg="http://www.w3.org/2000/svg"
   xmlns="http://www.w3.org/2000/svg"
   x="0"
   y="0"
   version="1.1"
   viewBox="0 0 100 100"
   id="svg10">
  <metadata
     id="metadata16">
    <rdf:RDF>
      <cc:Work
         rdf:about="">
        <dc:format>image/svg+xml</dc:format>
        <dc:type
           rdf:resource="http://purl.org/dc/dcmitype/StillImage" />
        <dc:title></dc:title>
      </cc:Work>
    </rdf:RDF>
  </metadata>
  <defs
     id="defs14" />
  <g
     style="fill-opacity:1;fill-rule:evenodd;stroke:none;stroke-width:1"
     id="g6"
     fill="#00c3ff">
    <path
       style="fill-opacity:1;fill-rule:nonzero;fill:#00c3ff;stroke:none"
       id="path2"
       d="m 71,67 v 6 c 0,0.578362 -0.410475,1 -0.918367,1 H 29.918367 C 29.406774,74 29,73.582596 29,73 v -6 c 0,-1.656854 -1.343146,-3 -3,-3 -1.656854,0 -3,1.343146 -3,3 v 6 c 0,3.862161 3.057934,7 6.918367,7 H 70.081633 C 73.939801,80 77,76.856573 77,73 v -6 c 0,-1.656854 -1.343146,-3 -3,-3 -1.656854,0 -3,1.343146 -3,3 z" />
    <path
       style="fill-opacity:1;fill:#00c3ff;stroke:none;fill-rule:nonzero"
       id="path4"
       transform="matrix(1,0,0,-1,0,82)"
       d="m 63.082252,49.567758 c -1.192,-1.140714 -3.092,-1.106989 -4.242,0.07638 l -5.84,6.008094 V 18.975777 c 0,-1.643621 -1.344,-2.975777 -3,-2.975777 -1.657,0 -3,1.332156 -3,2.975777 v 36.676454 l -5.84,-6.008094 c -1.151,-1.183368 -3.05,-1.217093 -4.243,-0.07638 -1.192,1.139723 -1.227,3.024382 -0.077,4.206757 l 11,11.314897 c 0.006,0.006 0.013,0.01091 0.02,0.01686 0.014,0.01389 0.027,0.02678 0.041,0.04067 0.006,0.0069 0.01,0.01389 0.016,0.01984 0.048,0.04464 0.102,0.07638 0.152,0.11804 0.036,0.03075 0.072,0.06051 0.109,0.08927 0.047,0.03571 0.089,0.07935 0.136,0.111096 0.016,0.01091 0.033,0.01785 0.048,0.02777 0.077,0.05059 0.158,0.0863 0.239,0.128951 0.013,0.0069 0.026,0.01488 0.04,0.02182 0.062,0.03174 0.121,0.07241 0.185,0.09919 0.018,0.0079 0.036,0.0119 0.053,0.01885 0.088,0.03472 0.179,0.05555 0.269,0.08332 0.079,0.02182 0.155,0.05456 0.235,0.07142 0.019,0.004 0.038,0.005 0.056,0.0079 0.091,0.01686 0.183,0.01984 0.274,0.02877 0.087,0.0089 0.173,0.02281 0.261,0.02381 0.008,0 0.017,0.003 0.026,0.003 0.009,0 0.018,-0.003 0.026,-0.003 0.088,0 0.174,-0.01488 0.261,-0.02381 0.091,-0.0089 0.183,-0.0119 0.274,-0.02877 0.018,-0.003 0.037,-0.004 0.055,-0.0079 0.082,-0.01785 0.159,-0.0496 0.239,-0.07241 0.089,-0.02777 0.178,-0.0486 0.265,-0.08233 0.018,-0.0069 0.036,-0.01091 0.053,-0.01785 0.079,-0.03373 0.151,-0.08233 0.227,-0.122999 0.08,-0.04166 0.161,-0.07737 0.238,-0.127959 0.014,-0.0099 0.031,-0.01587 0.046,-0.02579 0.057,-0.03869 0.107,-0.09027 0.162,-0.132918 0.031,-0.02381 0.06,-0.0486 0.09,-0.0734 0.047,-0.03968 0.1,-0.07043 0.146,-0.114072 0.006,-0.006 0.01,-0.0129 0.016,-0.01885 0.013,-0.01389 0.027,-0.02579 0.041,-0.03968 0.006,-0.0069 0.014,-0.0119 0.021,-0.01885 l 11,-11.314897 c 1.15,-1.182375 1.115,-3.067034 -0.078,-4.206757" />
  </g>
</svg>
